<?xml version="1.0" encoding="UTF-8" standalone="no"?>
<svg
   width="512"
   height="512"
   viewBox="0 0 512 512"
   version="1.1"
   id="svg8"
   inkscape:version="1.1.2 (0a00cf5339, 2022-02-04)"
   sodipodi:docname="dblp.svg"
   xmlns:inkscape="http://www.inkscape.org/namespaces/inkscape"
   xmlns:sodipodi="http://sodipodi.sourceforge.net/DTD/sodipodi-0.dtd"
   xmlns="http://www.w3.org/2000/svg"
   xmlns:svg="http://www.w3.org/2000/svg"
   xmlns:rdf="http://www.w3.org/1999/02/22-rdf-syntax-ns#"
   xmlns:cc="http://creativecommons.org/ns#"
   xmlns:dc="http://purl.org/dc/elements/1.1/">
  <title
     id="title833">dblp</title>
  <defs
     id="defs2" />
  <sodipodi:namedview
     id="base"
     pagecolor="#ffffff"
     bordercolor="#666666"
     borderopacity="1.0"
     inkscape:pageopacity="0.0"
     inkscape:pageshadow="2"
     inkscape:zoom="2.1213204"
     inkscape:cx="-49.261772"
     inkscape:cy="216.37467"
     inkscape:document-units="px"
     inkscape:current-layer="layer6"
     inkscape:document-rotation="0"
     showgrid="true"
     units="px"
     showguides="true"
     inkscape:guide-bbox="true"
     inkscape:window-width="3840"
     inkscape:window-height="2096"
     inkscape:window-x="1920"
     inkscape:window-y="27"
     inkscape:window-maximized="1"
     inkscape:pagecheckerboard="0">
    <inkscape:grid
       type="xygrid"
       id="grid10"
       empspacing="4" />
    <sodipodi:guide
       position="384.00001,64"
       orientation="0,1"
       id="guide23"
       inkscape:label="baseline"
       inkscape:locked="true"
       inkscape:color="rgb(0,0,255)" />
  </sodipodi:namedview>
  <metadata
     id="metadata5">
    <rdf:RDF>
      <cc:Work
         rdf:about="">
        <dc:format>image/svg+xml</dc:format>
        <dc:type
           rdf:resource="http://purl.org/dc/dcmitype/StillImage" />
        <dc:title>dblp</dc:title>
        <cc:license
           rdf:resource="http://scripts.sil.org/OFL" />
        <dc:subject>
          <rdf:Bag>
            <rdf:li>dblp</rdf:li>
          </rdf:Bag>
        </dc:subject>
      </cc:Work>
      <cc:License
         rdf:about="http://scripts.sil.org/OFL">
        <cc:permits
           rdf:resource="http://scripts.sil.org/pub/OFL/Reproduction" />
        <cc:permits
           rdf:resource="http://scripts.sil.org/pub/OFL/Distribution" />
        <cc:permits
           rdf:resource="http://scripts.sil.org/pub/OFL/Embedding" />
        <cc:permits
           rdf:resource="http://scripts.sil.org/pub/OFL/DerivativeWorks" />
        <cc:requires
           rdf:resource="http://scripts.sil.org/pub/OFL/Notice" />
        <cc:requires
           rdf:resource="http://scripts.sil.org/pub/OFL/Attribution" />
        <cc:requires
           rdf:resource="http://scripts.sil.org/pub/OFL/ShareAlike" />
        <cc:requires
           rdf:resource="http://scripts.sil.org/pub/OFL/DerivativeRenaming" />
        <cc:requires
           rdf:resource="http://scripts.sil.org/pub/OFL/BundlingWhenSelling" />
      </cc:License>
    </rdf:RDF>
  </metadata>
  <g
     inkscape:groupmode="layer"
     id="layer6"
     inkscape:label="icon">
    <path
       id="rect991"
       style="fill-opacity:1;fill-rule:evenodd;stroke:none;stroke-width:0.9594;stroke-miterlimit:4;stroke-dasharray:none;stroke-opacity:1;stop-color:#000000"
       d="m 108.22232,61.611537 c -2.01852,-0.137007 -3.49925,0.910449 -2.38426,5.072472 l 32.21115,120.205501 -0.005,0.003 -30.28701,14.07409 c 0,0 -9.066953,4.21372 -6.51697,13.72549 l 39.7599,148.38707 c 0,0 2.54679,9.50889 11.61452,5.29554 63.19531,-29.37177 99.99652,-46.47484 99.99652,-46.47484 l 21.20453,-9.85772 c 0,0 8.38095,-3.92112 6.72331,-12.71044 -0.0628,-0.33696 -0.11207,-0.66383 -0.20635,-1.01506 l -18.33227,-68.42115 -10.61063,-39.59258 c -1.18673,-4.22112 0,0 -10.93969,-41.07611 0,0 -2.54863,-9.51259 -13.56097,-16.26592 L 114.30147,63.923295 c 0,0 -3.48391,-2.135601 -6.07915,-2.311758 z m 247.60003,81.137183 c -1.26763,-0.0219 -2.73699,0.2864 -4.43665,1.0764 l -90.77461,41.92386 13.93744,51.98512 -0.0251,-0.0167 17.63233,66.09546 c 0.0928,0.34981 0.13936,0.67953 0.20357,1.01506 0.8293,7.56945 -6.72052,12.71045 -6.72052,12.71045 l -30.37067,14.19956 8.15944,30.53242 0.12551,0.50194 c 0,0 2.54862,9.51259 13.56097,16.26592 l 112.58705,69.03744 c 0,0 11.00918,6.75247 8.46062,-2.76072 -22.46652,-83.84281 -0.003,-0.009 -32.16095,-120.02425 l 30.24517,-14.05733 c -0.002,0 9.06417,-4.21374 6.51419,-13.72551 L 363.00021,149.12347 c 0,0 -1.68474,-6.27996 -7.17786,-6.37475 z" />
  </g>
</svg>
