<?xml version="1.0" encoding="UTF-8" standalone="no"?>
<!-- Generator: Adobe Illustrator 19.0.1, SVG Export Plug-In . SVG Version: 6.00 Build 0)  -->

<svg
   version="1.1"
   id="Ebene_1"
   x="0px"
   y="0px"
   width="294.99823"
   height="48.368752"
   viewBox="0 0 294.99824 48.368751"
   xml:space="preserve"
   sodipodi:docname="a-sit-plus-logo.svg"
   inkscape:version="1.4 (e7c3feb1, 2024-10-09)"
   xmlns:inkscape="http://www.inkscape.org/namespaces/inkscape"
   xmlns:sodipodi="http://sodipodi.sourceforge.net/DTD/sodipodi-0.dtd"
   xmlns="http://www.w3.org/2000/svg"
   xmlns:svg="http://www.w3.org/2000/svg"><defs
   id="defs14" /><sodipodi:namedview
   id="namedview14"
   pagecolor="#ffffff"
   bordercolor="#000000"
   borderopacity="0.25"
   inkscape:showpageshadow="2"
   inkscape:pageopacity="0.0"
   inkscape:pagecheckerboard="0"
   inkscape:deskcolor="#d1d1d1"
   showguides="true"
   inkscape:zoom="5.7871612"
   inkscape:cx="94.951563"
   inkscape:cy="-6.9118517"
   inkscape:window-width="3360"
   inkscape:window-height="1837"
   inkscape:window-x="0"
   inkscape:window-y="25"
   inkscape:window-maximized="0"
   inkscape:current-layer="Ebene_1"><sodipodi:guide
     position="144.9,0.64843904"
     orientation="0,-1"
     id="guide14"
     inkscape:locked="false" /><sodipodi:guide
     position="138.35361,45.54844"
     orientation="0,-1"
     id="guide15"
     inkscape:locked="false" /><sodipodi:guide
     position="181.23783,39.228592"
     orientation="1,0"
     id="guide16"
     inkscape:locked="false" /></sodipodi:namedview>
<style
   type="text/css"
   id="style1">
	.st0{fill:#005C7A;}
	.st1{fill:#CD492E;}
	.st2{fill:#005B79;}
</style>
<path
   class="st0"
   d="m 58.3,30.06875 h -18 c -0.1,0 -0.2,-0.1 -0.2,-0.2 v -5 c 0,-0.1 0.1,-0.2 0.2,-0.2 h 18 c 0.1,0 0.2,0.1 0.2,0.2 v 5 c 0,0.1 -0.1,0.2 -0.2,0.2 z"
   id="path1" />
<path
   class="st0"
   d="m 41.7,47.06875 -17.4,-44.5 c 0,-0.1 -0.1,-0.2 -0.2,-0.2 h -6.5 c -0.1,0 -0.2,0.1 -0.2,0.2 l -17.4,44.5 c 0,0.1 0,0.2 0,0.2 0.1,0.1 0.2,0.1 0.2,0.1 h 6 c 0.1,0 0.2,-0.1 0.2,-0.2 l 4.9,-13.2 1.4,-3.9 h 15.6 l 1.4,3.9 4.8,13.2 c 0,0.1 0.1,0.2 0.2,0.2 h 6.5 c 0.1,0 0.2,0 0.2,-0.1 0.3,-0.1 0.3,-0.2 0.3,-0.2 z m -21,-38.5 5.7,16.1 H 14.9 Z"
   id="path2" />
<path
   class="st0"
   d="m 82.8,48.36875 v 0 c -2.4,0 -4.7,-0.3 -6.8,-0.9 -2.2,-0.6 -4.2,-1.6 -5.9,-2.9 -1.7,-1.3 -3.1,-2.9 -4.1,-4.9 -0.9,-1.8 -1.4,-4 -1.5,-6.5 0,-0.1 0,-0.9 0,-2.1 0,-0.6 0,-0.7 0,-0.7 0,-0.1 0,-0.1 0.1,-0.2 0,0 0.1,-0.1 0.2,-0.1 h 5.6 c 0.1,0 0.2,0.1 0.2,0.2 0,0 0,0.2 0,0.7 0,0.9 0,2 0,2.1 0.1,1.6 0.4,2.9 1,4.1 0.7,1.3 1.6,2.4 2.8,3.2 1.2,0.9 2.5,1.5 4.1,1.9 1.4,0.4 2.8,0.6 4.2,0.6 0,0 0,0 0,0 1.5,0 2.9,-0.2 4.3,-0.6 1.5,-0.4 2.9,-1 4.1,-1.9 1.1,-0.8 2.1,-1.9 2.8,-3.2 0.7,-1.2 1,-2.7 1.1,-4.4 0,-0.1 0,-6 0,-8.2 H 64.8 c -0.1,0 -0.2,-0.1 -0.2,-0.2 v -5 c 0,0 0,0 0,0 0,-2.9 0,-2.7 0,-2.8 0.1,-2.5 0.6,-4.7 1.5,-6.5 1,-2 2.3,-3.7 4.1,-4.9 1.7,-1.3 3.7,-2.2 5.9,-2.9 2,-0.6 4.3,-0.9 6.7,-0.9 2.4,0 4.7,0.3 6.8,0.9 2.2,0.6 4.2,1.6 5.9,2.9 1.7,1.3 3.1,2.9 4.1,4.9 0.5,1.1 1.3,3.4 1.3,5 0,0.1 -0.1,0.3 -0.2,0.3 l -5.7,0.1 c -0.1,0 -0.1,-0.1 -0.1,-0.2 0,-0.1 0,-0.1 0,-0.2 -0.2,-1 -0.5,-1.8 -0.9,-2.6 -0.7,-1.3 -1.6,-2.4 -2.8,-3.2 -1.2,-0.9 -2.6,-1.5 -4.1,-1.9 -1.4,-0.4 -2.8,-0.6 -4.2,-0.6 0,0 0,0 0,0 -1.5,0 -2.9,0.2 -4.3,0.6 -1.5,0.4 -2.9,1 -4.1,1.9 -1.1,0.8 -2.1,1.9 -2.8,3.2 -0.6,1.2 -1,2.6 -1,4.1 0,0.1 0,1.4 0,2.5 h 30.2 c 0.1,0 0.2,0.1 0.2,0.2 v 7.5 c 0,2.7 0,5.8 0,5.9 0,2.6 -0.5,4.9 -1.5,6.8 -1,2 -2.3,3.7 -4.1,4.9 -1.7,1.3 -3.7,2.2 -5.9,2.9 -2.1,0.8 -4.4,1.1 -6.8,1.1 z"
   id="path3" />
<path
   class="st0"
   d="m 117.5,47.36875 h -5.9 c -0.1,0 -0.2,-0.1 -0.2,-0.2 v -44.5 c 0,-0.1 0.1,-0.2 0.2,-0.2 h 5.9 c 0.1,0 0.2,0.1 0.2,0.2 v 44.4 c 0,0.2 -0.1,0.3 -0.2,0.3 z"
   id="path4" />
<path
   class="st0"
   d="M 144.9,47.36875 H 139 c -0.1,0 -0.2,-0.1 -0.2,-0.2 v -39.3 h -14.6 c -0.1,0 -0.2,-0.1 -0.2,-0.2 v -5 c 0,-0.1 0.1,-0.2 0.2,-0.2 h 35.5 c 0.1,0 0.2,0.1 0.2,0.2 v 5 c 0,0.1 -0.1,0.2 -0.2,0.2 h -14.6 v 39.2 c 0,0.2 -0.1,0.3 -0.2,0.3 z"
   id="path5" />
<path
   class="st1"
   d="m 84.1,37.86875 h -2.6 c -0.1,0 -0.2,-0.1 -0.2,-0.2 v -5.3 c -0.8,-0.5 -1.3,-1.4 -1.3,-2.3 0,-1.5 1.3,-2.8 2.8,-2.8 1.5,0 2.8,1.3 2.8,2.8 0,0.9 -0.5,1.8 -1.3,2.3 v 5.2 c 0,0.2 -0.1,0.3 -0.2,0.3 z"
   id="path6" />

<path
   style="font-weight:430;font-size:64px;line-height:1.5;font-family:Roboto;-inkscape-font-specification:'Roboto weight=430';text-align:center;letter-spacing:-0.454031px;word-spacing:0px;text-anchor:middle;fill:#005c7a;fill-opacity:1;stroke-width:3.53964;stroke-linecap:round;stroke-linejoin:round;stroke-miterlimit:64.6;stroke-dashoffset:17.4001;stroke-opacity:0.878431"
   d="m 197.93275,30.026173 h -11.91172 v -5.215236 h 11.91172 q 3.36368,0 5.43125,-1.080078 2.09845,-1.080077 3.05508,-2.962499 0.95664,-1.913281 0.95664,-4.351172 0,-2.283595 -0.95664,-4.258595 -0.95663,-2.005858 -3.05508,-3.2093742 -2.06757,-1.234375 -5.43125,-1.234375 H 187.7183 V 47.4 h -6.48047 V 2.46875 h 16.69492 q 5.15352,0 8.70235,1.7898438 3.54883,1.7898438 5.40039,4.9375 1.85156,3.1167962 1.85156,7.1593752 0,4.320313 -1.85156,7.40625 -1.85156,3.055078 -5.40039,4.659766 -3.54883,1.604688 -8.70235,1.604688 z M 226.70823,0 v 47.4 h -6.26445 V 0 Z m 28.74461,39.654297 V 14.010156 h 6.2336 V 47.4 h -5.92501 z m 1.04922,-7.035937 2.43789,-0.06172 q 0,3.363672 -0.70977,6.202734 -0.70976,2.808204 -2.25273,4.875782 -1.54297,2.067577 -4.04258,3.240234 -2.46875,1.141797 -5.98671,1.141797 -2.43789,0 -4.47462,-0.709766 -2.00585,-0.709766 -3.45624,-2.191015 -1.45039,-1.48125 -2.25274,-3.857422 Q 234.99308,38.882813 234.99308,35.55 V 14.010156 h 6.20273 v 21.601563 q 0,2.129297 0.49375,3.517969 0.49376,1.388672 1.32696,2.221874 0.83319,0.802344 1.88241,1.141798 1.08009,0.339453 2.25274,0.339453 3.48711,0 5.52383,-1.357813 2.03672,-1.357812 2.93164,-3.672266 0.89492,-2.314452 0.89492,-5.184374 z m 32.3243,5.863281 q 0,-1.203516 -0.55546,-2.191016 -0.52462,-1.018359 -2.16016,-1.851562 -1.63555,-0.864062 -4.84493,-1.51211 -2.74648,-0.555468 -4.96835,-1.357812 -2.22188,-0.833203 -3.79571,-1.975 -1.54297,-1.172656 -2.40703,-2.715626 -0.8332,-1.573828 -0.8332,-3.641406 0,-2.005859 0.86406,-3.764843 0.89492,-1.789844 2.53047,-3.147656 1.63555,-1.357813 3.95,-2.129297 2.31445,-0.802344 5.18438,-0.802344 4.07344,0 6.94336,1.419531 2.90077,1.419531 4.44374,3.795703 1.54297,2.345313 1.54297,5.276953 h -6.23359 q 0,-1.388671 -0.77149,-2.653906 -0.77148,-1.265234 -2.28359,-2.067578 -1.48125,-0.833203 -3.6414,-0.833203 -2.22188,0 -3.64141,0.678906 -1.38867,0.678906 -2.03672,1.758985 -0.64804,1.080078 -0.64804,2.283594 0,0.894921 0.30858,1.604686 0.33946,0.678907 1.14181,1.265235 0.8332,0.586328 2.28359,1.110937 1.45039,0.493751 3.70312,0.987501 4.04258,0.894922 6.72735,2.191015 2.68476,1.265234 4.01172,3.178516 1.35781,1.882422 1.35781,4.690625 0,2.191016 -0.92578,4.011719 -0.89493,1.820703 -2.6539,3.147656 -1.72813,1.326954 -4.13516,2.067578 -2.37618,0.709766 -5.36953,0.709766 -4.44376,0 -7.5297,-1.573828 -3.08593,-1.604688 -4.69062,-4.104297 -1.57383,-2.530469 -1.57383,-5.276953 h 6.20274 q 0.0925,2.252734 1.26524,3.579687 1.20351,1.326954 2.90077,1.882422 1.72813,0.555469 3.45625,0.555469 2.25274,0 3.76485,-0.586328 1.51211,-0.586329 2.31445,-1.635547 0.80234,-1.049219 0.80234,-2.376172 z"
   id="text16"
   aria-label="Plus" /></svg>
