<?xml version="1.0" encoding="utf-8"?>
<!-- Generator: Adobe Illustrator 19.0.1, SVG Export Plug-In . SVG Version: 6.00 Build 0)  -->
<svg version="1.1" id="Ebene_1" xmlns="http://www.w3.org/2000/svg" xmlns:xlink="http://www.w3.org/1999/xlink" x="0px" y="0px"
	 width="170px" height="50px" viewBox="0 0 170 50" style="enable-background:new 0 0 170 50;" xml:space="preserve">
<style type="text/css">
	.st0{fill:#005C7A;}
	.st1{fill:#CD492E;}
</style>
<path class="st0" d="M59.3,30.7h-18c-0.1,0-0.2-0.1-0.2-0.2v-5c0-0.1,0.1-0.2,0.2-0.2h18c0.1,0,0.2,0.1,0.2,0.2v5
	C59.5,30.6,59.4,30.7,59.3,30.7z"/>
<path class="st0" d="M42.7,47.7L25.3,3.2c0-0.1-0.1-0.2-0.2-0.2h-6.5c-0.1,0-0.2,0.1-0.2,0.2L1,47.7c0,0.1,0,0.2,0,0.2
	C1.1,48,1.2,48,1.2,48h6c0.1,0,0.2-0.1,0.2-0.2l4.9-13.2l1.4-3.9h15.6l1.4,3.9l4.8,13.2c0,0.1,0.1,0.2,0.2,0.2h6.5
	c0.1,0,0.2,0,0.2-0.1C42.7,47.8,42.7,47.7,42.7,47.7z M21.7,9.2l5.7,16.1H15.9L21.7,9.2z"/>
<path class="st0" d="M83.8,49L83.8,49c-2.4,0-4.7-0.3-6.8-0.9c-2.2-0.6-4.2-1.6-5.9-2.9c-1.7-1.3-3.1-2.9-4.1-4.9
	c-0.9-1.8-1.4-4-1.5-6.5c0-0.1,0-0.9,0-2.1c0-0.6,0-0.7,0-0.7c0-0.1,0-0.1,0.1-0.2c0,0,0.1-0.1,0.2-0.1h5.6c0.1,0,0.2,0.1,0.2,0.2
	c0,0,0,0.2,0,0.7c0,0.9,0,2,0,2.1c0.1,1.6,0.4,2.9,1,4.1c0.7,1.3,1.6,2.4,2.8,3.2c1.2,0.9,2.5,1.5,4.1,1.9c1.4,0.4,2.8,0.6,4.2,0.6
	c0,0,0,0,0,0c1.5,0,2.9-0.2,4.3-0.6c1.5-0.4,2.9-1,4.1-1.9c1.1-0.8,2.1-1.9,2.8-3.2c0.7-1.2,1-2.7,1.1-4.4c0-0.1,0-6,0-8.2H65.8
	c-0.1,0-0.2-0.1-0.2-0.2v-5c0,0,0,0,0,0c0-2.9,0-2.7,0-2.8c0.1-2.5,0.6-4.7,1.5-6.5c1-2,2.3-3.7,4.1-4.9c1.7-1.3,3.7-2.2,5.9-2.9
	C79.1,2.3,81.4,2,83.8,2c2.4,0,4.7,0.3,6.8,0.9c2.2,0.6,4.2,1.6,5.9,2.9c1.7,1.3,3.1,2.9,4.1,4.9c0.5,1.1,1.3,3.4,1.3,5
	c0,0.1-0.1,0.3-0.2,0.3L96,16.1c-0.1,0-0.1-0.1-0.1-0.2c0-0.1,0-0.1,0-0.2c-0.2-1-0.5-1.8-0.9-2.6c-0.7-1.3-1.6-2.4-2.8-3.2
	C91,9,89.6,8.4,88.1,8c-1.4-0.4-2.8-0.6-4.2-0.6c0,0,0,0,0,0c-1.5,0-2.9,0.2-4.3,0.6c-1.5,0.4-2.9,1-4.1,1.9
	c-1.1,0.8-2.1,1.9-2.8,3.2c-0.6,1.2-1,2.6-1,4.1c0,0.1,0,1.4,0,2.5h30.2c0.1,0,0.2,0.1,0.2,0.2l0,7.5c0,2.7,0,5.8,0,5.9
	c0,2.6-0.5,4.9-1.5,6.8c-1,2-2.3,3.7-4.1,4.9c-1.7,1.3-3.7,2.2-5.9,2.9C88.5,48.7,86.2,49,83.8,49L83.8,49z"/>
<path class="st0" d="M118.5,48h-5.9c-0.1,0-0.2-0.1-0.2-0.2V3.3c0-0.1,0.1-0.2,0.2-0.2h5.9c0.1,0,0.2,0.1,0.2,0.2v44.4
	C118.7,47.9,118.6,48,118.5,48z"/>
<path class="st0" d="M145.9,48H140c-0.1,0-0.2-0.1-0.2-0.2V8.5h-14.6c-0.1,0-0.2-0.1-0.2-0.2v-5c0-0.1,0.1-0.2,0.2-0.2h35.5
	c0.1,0,0.2,0.1,0.2,0.2v5c0,0.1-0.1,0.2-0.2,0.2h-14.6v39.2C146.1,47.9,146,48,145.9,48z"/>
<path class="st1" d="M85.1,38.5h-2.6c-0.1,0-0.2-0.1-0.2-0.2V33c-0.8-0.5-1.3-1.4-1.3-2.3c0-1.5,1.3-2.8,2.8-2.8
	c1.5,0,2.8,1.3,2.8,2.8c0,0.9-0.5,1.8-1.3,2.3v5.2C85.3,38.4,85.2,38.5,85.1,38.5z"/>
</svg>
