<?xml version="1.0" encoding="UTF-8" standalone="no"?>
<!-- Created with Inkscape (http://www.inkscape.org/) -->

<svg
   width="72.47979mm"
   height="62.509556mm"
   viewBox="0 0 72.47979 62.509557"
   version="1.1"
   id="svg1"
   sodipodi:docname="4k.svg"
   inkscape:version="1.4 (e7c3feb1, 2024-10-09)"
   xmlns:inkscape="http://www.inkscape.org/namespaces/inkscape"
   xmlns:sodipodi="http://sodipodi.sourceforge.net/DTD/sodipodi-0.dtd"
   xmlns="http://www.w3.org/2000/svg"
   xmlns:svg="http://www.w3.org/2000/svg">
  <sodipodi:namedview
     id="namedview1"
     pagecolor="#ffffff"
     bordercolor="#000000"
     borderopacity="0.25"
     inkscape:showpageshadow="2"
     inkscape:pageopacity="0.0"
     inkscape:pagecheckerboard="0"
     inkscape:deskcolor="#d1d1d1"
     inkscape:document-units="mm"
     inkscape:zoom="1.8085885"
     inkscape:cx="249.91865"
     inkscape:cy="106.98951"
     inkscape:window-width="1968"
     inkscape:window-height="1124"
     inkscape:window-x="0"
     inkscape:window-y="48"
     inkscape:window-maximized="0"
     inkscape:current-layer="svg1" />
  <defs
     id="defs1">
    <clipPath
       clipPathUnits="userSpaceOnUse"
       id="clipPath13">
      <path
         id="path13"
         style="stroke-width:0.1;stroke-linecap:square;paint-order:markers fill stroke;stop-color:#000000"
         d="m -880.82767,-187.29769 h 1640.84 v 73.28155 h -1640.84 z" />
    </clipPath>
    <clipPath
       clipPathUnits="userSpaceOnUse"
       id="clipPath9">
      <path
         id="path9"
         style="stroke-width:0.1;stroke-linecap:square;paint-order:markers fill stroke;stop-color:#000000"
         d="m -880.82767,-187.29769 h 1640.84 v 73.28155 h -1640.84 z" />
    </clipPath>
    <clipPath
       clipPathUnits="userSpaceOnUse"
       id="clipPath52">
      <path
         id="path52"
         style="stroke-width:0.1;stroke-linecap:square;paint-order:markers fill stroke;stop-color:#000000"
         d="m -880.82767,-187.29769 h 1640.84 v 73.28155 h -1640.84 z" />
    </clipPath>
    <filter
       inkscape:collect="always"
       style="color-interpolation-filters:sRGB"
       id="filter5"
       x="-0.055972218"
       y="-0.067135569"
       width="1.1129173"
       height="1.1339108">
      <feGaussianBlur
         inkscape:collect="always"
         stdDeviation="0.86883044"
         id="feGaussianBlur5" />
    </filter>
  </defs>
  <path
     d="m 20.960573,23.243278 c -0.103934,3.63955 -0.181175,7.112501 -0.319749,10.541436 l -6.424149,2.030397 c 1.52588,-4.197909 3.357611,-7.851457 4.602948,-12.11137 L 11.44987,20.645139 C 8.9271804,27.65637 5.7561404,34.341782 3.6452437,41.555546 c 0.490538,0.35223 0.709053,0.694628 1.024172,0.966912 1.2340677,1.256704 2.5387717,2.285497 3.7202027,3.550863 0.901538,0.878854 1.6645226,0.915554 2.6300366,0.540376 1.930975,-0.750731 3.91474,-1.509192 5.90707,-2.215613 1.123412,-0.401354 2.21152,-0.68866 3.387568,-1.098677 0.177289,3.377002 -0.404371,9.041576 -0.279737,12.427244 l 8.392548,0.403085 c -0.59971,-2.658723 0.14167,-26.407689 0.24023,-31.722423 z m 9.137051,34.166643 c 2.507417,0.452316 4.909587,0.922145 7.478314,1.418491 0.39376,-3.849433 0.8222,-7.488283 1.22462,-11.285117 6.179397,2.099881 12.174704,3.673441 18.328341,5.255905 0.69764,-2.331506 1.351287,-4.601749 2.048927,-6.933255 C 54.251569,44.513969 45.437135,41.857677 40.643488,39.997283 46.487885,34.115496 56.185459,21.380118 59.887486,14.039258 58.084366,12.281472 56.078679,10.935494 54.064319,9.5368615 50.295022,17.209437 44.741575,25.493272 39.301648,30.876021 c 0.44839,-4.831645 0.1193,-14.387776 0.54104,-19.05281 -2.55141,-0.391148 -5.050177,-0.790892 -7.610257,-1.234648 -0.876107,12.417224 -0.925527,34.457429 -2.134807,46.821358 z M 68.485213,44.928996 C 69.13678,35.08983 67.734283,15.397177 68.265243,4.4965429 65.792463,4.2547171 63.311016,3.9601895 60.943516,3.7010097 c -0.52976,1.7091665 -0.0319,39.2303443 0.35123,40.5730553 2.147687,0.566115 4.507117,0.447757 7.190467,0.654931 z m -2.98445,9.790506 c 2.15827,-0.35518 3.609547,-2.378137 3.201727,-4.527721 -0.311867,-1.895065 -2.203617,-3.205798 -4.247937,-2.815251 -2.210907,0.363842 -3.670837,2.3342 -3.271677,4.431184 0.33785,2.052956 2.220937,3.310996 4.317887,2.911788 z"
     id="path3"
     style="font-size:5.64444px;font-family:'Virus Killer';-inkscape-font-specification:'Virus Killer';letter-spacing:0px;mix-blend-mode:normal;fill:#000000;fill-opacity:1;stroke:#000000;stroke-width:3.25094;stroke-linecap:butt;stroke-linejoin:bevel;stroke-miterlimit:64.6;stroke-dasharray:none;stroke-opacity:1;filter:url(#filter5)"
     aria-label="JsonPath4K!" />
  <g
     id="layer1"
     transform="translate(-79.885168,-117.67008)">
    <g
       id="g6"
       transform="matrix(9.3261063,-1.5347692,1.5347692,9.3261063,-747.35272,-667.82605)">
      <path
         d="m 74.650527,98.970317 c -0.07338,0.378178 -0.141111,0.739422 -0.214489,1.095033 l -0.705555,0.10161 c 0.231422,-0.412066 0.485422,-0.762021 0.688621,-1.185354 l -0.716843,-0.44593 c -0.383822,0.688621 -0.829733,1.332094 -1.174044,2.048954 0.04516,0.0452 0.06209,0.0847 0.09031,0.11854 0.107244,0.1524 0.225778,0.28222 0.327378,0.43462 0.07902,0.10724 0.158044,0.12418 0.265288,0.1016 0.214489,-0.0452 0.434622,-0.0903 0.654755,-0.12982 0.124178,-0.0226 0.242711,-0.0339 0.372533,-0.0565 -0.03951,0.3556 -0.197555,0.93698 -0.242711,1.29258 l 0.869244,0.18627 c -0.01693,-0.28787 0.468489,-2.754516 0.570089,-3.307673 z m 0.366893,3.723953 c 0.254,0.0903 0.496711,0.18062 0.756355,0.27657 0.107244,-0.39511 0.214489,-0.76764 0.321733,-1.15711 0.609043,0.32539 1.20791,0.59267 1.823154,0.8636 0.112889,-0.23142 0.220133,-0.4572 0.333022,-0.68862 -0.491066,-0.22578 -1.365644,-0.65453 -1.834132,-0.93111 0.711199,-0.51364 1.942413,-1.676611 2.45502,-2.379383 -0.158044,-0.214489 -0.34431,-0.389466 -0.530577,-0.570089 -0.525329,0.736247 -1.247421,1.505656 -1.907821,1.974172 0.129822,-0.496739 0.259645,-1.500039 0.383822,-1.979816 -0.259644,-0.08467 -0.513644,-0.169333 -0.773288,-0.259644 -0.3048,1.281288 -0.688622,3.58143 -1.027288,4.85143 z m 4.222039,-0.64347 c 0.237066,-1.016 0.428977,-3.096006 0.671688,-4.224894 -0.254,-0.06773 -0.508,-0.141111 -0.750711,-0.208844 -0.08467,0.169333 -0.677332,4.095068 -0.660399,4.241828 0.214489,0.096 0.462844,0.12418 0.739422,0.19191 z m -0.479778,0.97084 c 0.231422,0 0.417689,-0.18626 0.412044,-0.41768 0,-0.2032 -0.174977,-0.37254 -0.395111,-0.36689 -0.237066,0 -0.423333,0.18062 -0.417688,0.4064 0,0.22013 0.174978,0.38382 0.400755,0.37817 z"
         id="path5"
         style="font-size:5.64444px;font-family:'Virus Killer';-inkscape-font-specification:'Virus Killer';letter-spacing:0px;fill:#9fffb4;fill-opacity:1;stroke:#9fffb4;stroke-width:0.343958;stroke-linecap:butt;stroke-linejoin:bevel;stroke-miterlimit:64.6;stroke-dasharray:none;stroke-opacity:1"
         aria-label="JsonPath4K!" />
      <path
         d="m 74.794544,99.196733 c -0.07338,0.378178 -0.141111,0.739422 -0.214489,1.095017 l -0.705555,0.1016 c 0.231422,-0.41204 0.485422,-0.761995 0.688621,-1.185328 l -0.716843,-0.44593 c -0.383822,0.688621 -0.829733,1.332088 -1.174044,2.048928 0.04516,0.0452 0.06209,0.0847 0.09031,0.11854 0.107244,0.1524 0.225778,0.28222 0.327378,0.43462 0.07902,0.10724 0.158044,0.12418 0.265288,0.1016 0.214489,-0.0452 0.434622,-0.0903 0.654755,-0.12982 0.124178,-0.0226 0.242711,-0.0339 0.372533,-0.0565 -0.03951,0.3556 -0.197555,0.93698 -0.242711,1.29258 l 0.869244,0.18627 c -0.01693,-0.28787 0.468489,-2.75449 0.570089,-3.307647 z m 0.366893,3.723927 c 0.254,0.0903 0.496711,0.18062 0.756355,0.27657 0.107244,-0.39511 0.214489,-0.76764 0.321733,-1.15711 0.609043,0.32539 1.20791,0.59267 1.823154,0.8636 0.112889,-0.23142 0.220133,-0.4572 0.333022,-0.68862 -0.491066,-0.22578 -1.365644,-0.65453 -1.834132,-0.93111 0.711199,-0.51364 1.942413,-1.676585 2.45502,-2.379357 -0.158044,-0.214489 -0.34431,-0.389466 -0.530577,-0.570089 -0.525329,0.736247 -1.247421,1.505656 -1.907821,1.974146 0.129822,-0.496713 0.259645,-1.500013 0.383822,-1.97979 -0.259644,-0.08467 -0.513644,-0.169333 -0.773288,-0.259644 -0.3048,1.281288 -0.688622,3.581404 -1.027288,4.851404 z m 4.222039,-0.64347 c 0.237066,-1.016 0.428977,-3.09598 0.671688,-4.224868 -0.254,-0.06773 -0.508,-0.141111 -0.750711,-0.208844 -0.08467,0.169333 -0.677332,4.095042 -0.660399,4.241802 0.214489,0.096 0.462844,0.12418 0.739422,0.19191 z m -0.479778,0.97084 c 0.231422,0 0.417689,-0.18626 0.412044,-0.41768 0,-0.2032 -0.174977,-0.37254 -0.395111,-0.36689 -0.237066,0 -0.423333,0.18062 -0.417688,0.4064 0,0.22013 0.174978,0.38382 0.400755,0.37817 z"
         id="path2"
         style="font-size:5.64444px;font-family:'Virus Killer';-inkscape-font-specification:'Virus Killer';letter-spacing:0px;fill:#000000;fill-opacity:1;stroke:#000000;stroke-width:0.343958;stroke-linecap:butt;stroke-linejoin:bevel;stroke-miterlimit:64.6;stroke-dasharray:none;stroke-opacity:1"
         aria-label="JsonPath4K!" />
      <path
         d="m 74.903966,99.219943 c -0.07338,0.378178 -0.141111,0.739422 -0.214489,1.095017 l -0.705555,0.1016 c 0.231422,-0.41204 0.485422,-0.761995 0.688621,-1.185328 L 73.9557,98.785302 c -0.383822,0.688621 -0.829733,1.332088 -1.174044,2.048928 0.04516,0.0452 0.06209,0.0847 0.09031,0.11854 0.107244,0.1524 0.225778,0.28222 0.327378,0.43462 0.07902,0.10724 0.158044,0.12418 0.265288,0.1016 0.214489,-0.0452 0.434622,-0.0903 0.654755,-0.12982 0.124178,-0.0226 0.242711,-0.0339 0.372533,-0.0565 -0.03951,0.3556 -0.197555,0.93698 -0.242711,1.29258 l 0.869244,0.18627 c -0.01693,-0.28787 0.468489,-2.75449 0.570089,-3.307647 z m 0.366893,3.723927 c 0.254,0.0903 0.496711,0.18062 0.756355,0.27657 0.107244,-0.39511 0.214489,-0.76764 0.321733,-1.15711 0.609043,0.32539 1.20791,0.59267 1.823154,0.8636 0.112889,-0.23142 0.220133,-0.4572 0.333022,-0.68862 -0.491066,-0.22578 -1.365644,-0.65453 -1.834132,-0.93111 0.711199,-0.51364 1.942413,-1.676585 2.45502,-2.379357 -0.158044,-0.214489 -0.34431,-0.389466 -0.530577,-0.570089 -0.525329,0.736247 -1.247421,1.505656 -1.907821,1.974146 0.129822,-0.496713 0.259645,-1.500013 0.383822,-1.97979 -0.259644,-0.08467 -0.513644,-0.169333 -0.773288,-0.259644 -0.3048,1.281288 -0.688622,3.581404 -1.027288,4.851404 z m 4.222039,-0.64347 c 0.237066,-1.016 0.428977,-3.09598 0.671688,-4.224868 -0.254,-0.06773 -0.508,-0.141111 -0.750711,-0.208844 -0.08467,0.169333 -0.677332,4.095042 -0.660399,4.241802 0.214489,0.096 0.462844,0.12418 0.739422,0.19191 z m -0.479778,0.97084 c 0.231422,0 0.417689,-0.18626 0.412044,-0.41768 0,-0.2032 -0.174977,-0.37254 -0.395111,-0.36689 -0.237066,0 -0.423333,0.18062 -0.417688,0.4064 0,0.22013 0.174978,0.38382 0.400755,0.37817 z"
         id="text2"
         style="font-size:5.64444px;font-family:'Virus Killer';-inkscape-font-specification:'Virus Killer';letter-spacing:0px;fill:#fff146;fill-opacity:1;stroke-width:0.265112;stroke-linecap:square;stroke-miterlimit:64.6"
         aria-label="JsonPath4K!" />
    </g>
  </g>
</svg>
