<?xml version="1.0" encoding="UTF-8" standalone="no"?>
<svg
   viewBox="0 0 11.76997 9.1341473"
   version="1.1"
   id="svg2"
   sodipodi:docname="arrows-opt.svg"
   width="11.76997"
   height="9.1341476"
   inkscape:version="1.4 (e7c3feb1, 2024-10-09)"
   xmlns:inkscape="http://www.inkscape.org/namespaces/inkscape"
   xmlns:sodipodi="http://sodipodi.sourceforge.net/DTD/sodipodi-0.dtd"
   xmlns="http://www.w3.org/2000/svg"
   xmlns:svg="http://www.w3.org/2000/svg">
  <defs
     id="defs2">
    <filter
       inkscape:collect="always"
       style="color-interpolation-filters:sRGB"
       id="filter4"
       x="-0.010627772"
       y="-0.013779122"
       width="1.0212555"
       height="1.0275582">
      <feGaussianBlur
         inkscape:collect="always"
         stdDeviation="0.051035446"
         id="feGaussianBlur4" />
    </filter>
  </defs>
  <sodipodi:namedview
     id="namedview2"
     pagecolor="#ffffff"
     bordercolor="#000000"
     borderopacity="0.25"
     inkscape:showpageshadow="2"
     inkscape:pageopacity="0.0"
     inkscape:pagecheckerboard="0"
     inkscape:deskcolor="#d1d1d1"
     inkscape:zoom="45.309772"
     inkscape:cx="12.226943"
     inkscape:cy="5.2858354"
     inkscape:window-width="1968"
     inkscape:window-height="1124"
     inkscape:window-x="0"
     inkscape:window-y="48"
     inkscape:window-maximized="0"
     inkscape:current-layer="svg2" />
  <g
     fill="#8a2be2"
     font-family="VALORANT"
     font-size="12.7px"
     letter-spacing="0"
     text-anchor="middle"
     id="g4"
     style="mix-blend-mode:normal;fill:#000000;fill-opacity:0.8;filter:url(#filter4)"
     transform="translate(0.12273507,0.1225672)">
    <path
       d="m 58.308,205.704 3.187,-4.153 a 0.517,0.517 0 0 1 0.42,-0.203 h 1.612 c 0.051,0 0.085,0.021 0.102,0.063 0.025,0.034 0.025,0.072 0,0.115 l -3.277,4.267 3.264,4.267 c 0.034,0.042 0.038,0.085 0.013,0.127 -0.017,0.034 -0.05,0.05 -0.102,0.05 h -1.613 a 0.517,0.517 0 0 1 -0.419,-0.202 l -3.187,-4.14 c -0.043,-0.068 -0.043,-0.132 0,-0.191 z m -6.153,0 3.187,-4.153 a 0.517,0.517 0 0 1 0.42,-0.203 h 1.612 c 0.051,0 0.085,0.021 0.102,0.063 0.025,0.034 0.025,0.072 0,0.115 l -3.277,4.267 3.264,4.267 c 0.034,0.042 0.038,0.085 0.013,0.127 -0.017,0.034 -0.05,0.05 -0.102,0.05 h -1.613 a 0.517,0.517 0 0 1 -0.419,-0.202 l -3.187,-4.14 c -0.043,-0.068 -0.043,-0.132 0,-0.191 z"
       style="-inkscape-font-specification:VALORANT;text-align:center;fill:#000000;fill-opacity:0.8"
       transform="translate(-52.123,-201.348)"
       id="path3" />
    <path
       d="m 55.231,205.704 3.188,-4.153 a 0.517,0.517 0 0 1 0.419,-0.203 h 1.613 c 0.05,0 0.084,0.021 0.101,0.063 0.026,0.034 0.026,0.072 0,0.115 l -3.276,4.267 3.264,4.267 c 0.034,0.042 0.038,0.085 0.012,0.127 -0.017,0.034 -0.05,0.05 -0.101,0.05 h -1.613 a 0.517,0.517 0 0 1 -0.42,-0.202 l -3.187,-4.14 c -0.042,-0.068 -0.042,-0.132 0,-0.191 z"
       style="-inkscape-font-specification:VALORANT;text-align:center;fill:#000000;fill-opacity:0.8"
       transform="translate(-52.123,-201.348)"
       id="path4" />
  </g>
  <g
     fill="#8a2be2"
     font-family="VALORANT"
     font-size="12.7px"
     letter-spacing="0"
     text-anchor="middle"
     id="g2"
     transform="translate(0.21101623,0.10049691)">
    <path
       d="m 58.308,205.704 3.187,-4.153 a 0.517,0.517 0 0 1 0.42,-0.203 h 1.612 c 0.051,0 0.085,0.021 0.102,0.063 0.025,0.034 0.025,0.072 0,0.115 l -3.277,4.267 3.264,4.267 c 0.034,0.042 0.038,0.085 0.013,0.127 -0.017,0.034 -0.05,0.05 -0.102,0.05 h -1.613 a 0.517,0.517 0 0 1 -0.419,-0.202 l -3.187,-4.14 c -0.043,-0.068 -0.043,-0.132 0,-0.191 z m -6.153,0 3.187,-4.153 a 0.517,0.517 0 0 1 0.42,-0.203 h 1.612 c 0.051,0 0.085,0.021 0.102,0.063 0.025,0.034 0.025,0.072 0,0.115 l -3.277,4.267 3.264,4.267 c 0.034,0.042 0.038,0.085 0.013,0.127 -0.017,0.034 -0.05,0.05 -0.102,0.05 h -1.613 a 0.517,0.517 0 0 1 -0.419,-0.202 l -3.187,-4.14 c -0.043,-0.068 -0.043,-0.132 0,-0.191 z"
       style="-inkscape-font-specification:VALORANT;text-align:center"
       transform="translate(-52.123,-201.348)"
       id="path1" />
    <path
       d="m 55.231,205.704 3.188,-4.153 a 0.517,0.517 0 0 1 0.419,-0.203 h 1.613 c 0.05,0 0.084,0.021 0.101,0.063 0.026,0.034 0.026,0.072 0,0.115 l -3.276,4.267 3.264,4.267 c 0.034,0.042 0.038,0.085 0.012,0.127 -0.017,0.034 -0.05,0.05 -0.101,0.05 h -1.613 a 0.517,0.517 0 0 1 -0.42,-0.202 l -3.187,-4.14 c -0.042,-0.068 -0.042,-0.132 0,-0.191 z"
       style="-inkscape-font-specification:VALORANT;text-align:center"
       transform="translate(-52.123,-201.348)"
       id="path2" />
  </g>
</svg>
