<?xml version="1.0" encoding="UTF-8" standalone="no"?>
<svg
   viewBox="0 0 8.2393906 9.4578981"
   version="1.1"
   id="svg2"
   sodipodi:docname="c-opt.svg"
   width="8.2393904"
   height="9.4578981"
   inkscape:version="1.4 (e7c3feb1, 2024-10-09)"
   xmlns:inkscape="http://www.inkscape.org/namespaces/inkscape"
   xmlns:sodipodi="http://sodipodi.sourceforge.net/DTD/sodipodi-0.dtd"
   xmlns="http://www.w3.org/2000/svg"
   xmlns:svg="http://www.w3.org/2000/svg">
  <defs
     id="defs2">
    <filter
       inkscape:collect="always"
       style="color-interpolation-filters:sRGB"
       id="filter4"
       x="-0.01291024"
       y="-0.01120966"
       width="1.0258205"
       height="1.0224193">
      <feGaussianBlur
         inkscape:collect="always"
         stdDeviation="0.043206271"
         id="feGaussianBlur4" />
    </filter>
  </defs>
  <sodipodi:namedview
     id="namedview2"
     pagecolor="#ffffff"
     bordercolor="#000000"
     borderopacity="0.25"
     inkscape:showpageshadow="2"
     inkscape:pageopacity="0.0"
     inkscape:pagecheckerboard="0"
     inkscape:deskcolor="#d1d1d1"
     inkscape:zoom="46.954621"
     inkscape:cx="1.5333954"
     inkscape:cy="4.8344549"
     inkscape:window-width="1968"
     inkscape:window-height="1125"
     inkscape:window-x="0"
     inkscape:window-y="48"
     inkscape:window-maximized="1"
     inkscape:current-layer="svg2" />
  <g
     fill="#8a2be2"
     font-family="VALORANT"
     font-size="12.7px"
     text-anchor="middle"
     id="g4"
     style="fill:#000000;fill-opacity:0.8;filter:url(#filter4)"
     transform="translate(0.10369505,-0.01603467)">
    <path
       d="m 59.64,222.13 q 0,-0.98 0.36,-1.82 0.37,-0.84 0.98,-1.46 0.62,-0.62 1.46,-0.96 0.83,-0.36 1.8,-0.35 1.03,0.02 1.9,0.42 0.87,0.4 1.5,1.12 0.04,0.05 0.03,0.11 0,0.07 -0.05,0.1 l -1,0.86 q -0.06,0.03 -0.12,0.03 -0.06,0 -0.1,-0.06 -0.42,-0.48 -1,-0.76 -0.56,-0.3 -1.22,-0.28 -0.6,0.01 -1.13,0.27 -0.54,0.24 -0.93,0.67 -0.4,0.42 -0.62,0.98 -0.23,0.56 -0.23,1.2 0,0.63 0.24,1.18 0.24,0.56 0.65,0.98 0.4,0.42 0.94,0.66 0.53,0.23 1.14,0.23 0.63,-0.01 1.2,-0.3 0.55,-0.27 0.96,-0.75 0.04,-0.05 0.1,-0.05 0.06,-0.02 0.11,0.03 l 1,0.86 q 0.06,0.03 0.06,0.1 0.01,0.06 -0.03,0.11 -0.64,0.73 -1.53,1.14 -0.9,0.41 -1.95,0.4 -0.95,0 -1.79,-0.36 -0.82,-0.37 -1.43,-0.99 -0.61,-0.63 -0.95,-1.48 -0.35,-0.85 -0.35,-1.83 z"
       style="-inkscape-font-specification:VALORANT;text-align:center;fill:#000000;fill-opacity:0.8"
       transform="translate(-59.64,-217.42)"
       id="path3" />
    <path
       d="m 66.21,221.35 h 1.3 c 0.1,0 0.16,0.06 0.16,0.17 v 1.38 c 0,0.11 -0.05,0.17 -0.16,0.17 h -1.3 c -0.1,0 -0.16,-0.06 -0.16,-0.17 v -1.38 c 0,-0.11 0.05,-0.17 0.16,-0.17 z"
       letter-spacing="-3.12"
       style="-inkscape-font-specification:VALORANT;text-align:center;fill:#000000;fill-opacity:0.8"
       transform="translate(-59.64,-217.42)"
       id="path4" />
  </g>
  <g
     fill="#8a2be2"
     font-family="VALORANT"
     font-size="12.7px"
     text-anchor="middle"
     id="g2"
     transform="translate(0.16758653,-0.07992615)">
    <path
       d="m 59.64,222.13 q 0,-0.98 0.36,-1.82 0.37,-0.84 0.98,-1.46 0.62,-0.62 1.46,-0.96 0.83,-0.36 1.8,-0.35 1.03,0.02 1.9,0.42 0.87,0.4 1.5,1.12 0.04,0.05 0.03,0.11 0,0.07 -0.05,0.1 l -1,0.86 q -0.06,0.03 -0.12,0.03 -0.06,0 -0.1,-0.06 -0.42,-0.48 -1,-0.76 -0.56,-0.3 -1.22,-0.28 -0.6,0.01 -1.13,0.27 -0.54,0.24 -0.93,0.67 -0.4,0.42 -0.62,0.98 -0.23,0.56 -0.23,1.2 0,0.63 0.24,1.18 0.24,0.56 0.65,0.98 0.4,0.42 0.94,0.66 0.53,0.23 1.14,0.23 0.63,-0.01 1.2,-0.3 0.55,-0.27 0.96,-0.75 0.04,-0.05 0.1,-0.05 0.06,-0.02 0.11,0.03 l 1,0.86 q 0.06,0.03 0.06,0.1 0.01,0.06 -0.03,0.11 -0.64,0.73 -1.53,1.14 -0.9,0.41 -1.95,0.4 -0.95,0 -1.79,-0.36 -0.82,-0.37 -1.43,-0.99 -0.61,-0.63 -0.95,-1.48 -0.35,-0.85 -0.35,-1.83 z"
       style="-inkscape-font-specification:VALORANT;text-align:center"
       transform="translate(-59.64,-217.42)"
       id="path1" />
    <path
       d="m 66.21,221.35 h 1.3 c 0.1,0 0.16,0.06 0.16,0.17 v 1.38 c 0,0.11 -0.05,0.17 -0.16,0.17 h -1.3 c -0.1,0 -0.16,-0.06 -0.16,-0.17 v -1.38 c 0,-0.11 0.05,-0.17 0.16,-0.17 z"
       letter-spacing="-3.12"
       style="-inkscape-font-specification:VALORANT;text-align:center"
       transform="translate(-59.64,-217.42)"
       id="path2" />
  </g>
</svg>
