<?xml version="1.0" encoding="UTF-8" standalone="no"?>
<!-- Created with Inkscape (http://www.inkscape.org/) -->

<svg
   width="74.554039mm"
   height="56.54422mm"
   viewBox="0 0 74.554039 56.54422"
   version="1.1"
   id="svg1"
   xml:space="preserve"
   inkscape:version="1.4.2 (ebf0e940, 2025-05-08)"
   sodipodi:docname="kmmresult.svg"
   inkscape:export-filename="kmmresult.png"
   inkscape:export-xdpi="150"
   inkscape:export-ydpi="150"
   xmlns:inkscape="http://www.inkscape.org/namespaces/inkscape"
   xmlns:sodipodi="http://sodipodi.sourceforge.net/DTD/sodipodi-0.dtd"
   xmlns:xlink="http://www.w3.org/1999/xlink"
   xmlns="http://www.w3.org/2000/svg"
   xmlns:svg="http://www.w3.org/2000/svg"><sodipodi:namedview
     id="namedview1"
     pagecolor="#4a4a4a"
     bordercolor="#000000"
     borderopacity="0.25"
     inkscape:showpageshadow="2"
     inkscape:pageopacity="0.0"
     inkscape:pagecheckerboard="0"
     inkscape:deskcolor="#d1d1d1"
     inkscape:document-units="mm"
     inkscape:zoom="1.9646313"
     inkscape:cx="79.149711"
     inkscape:cy="18.83305"
     inkscape:window-width="1968"
     inkscape:window-height="1125"
     inkscape:window-x="0"
     inkscape:window-y="25"
     inkscape:window-maximized="0"
     inkscape:current-layer="layer1"
     showgrid="false"
     showguides="true"><inkscape:grid
       id="grid9"
       units="mm"
       originx="-71.941809"
       originy="-63.181468"
       spacingx="0.99999998"
       spacingy="1"
       empcolor="#0099e5"
       empopacity="0.30196078"
       color="#0099e5"
       opacity="0.14901961"
       empspacing="5"
       dotted="false"
       gridanglex="30"
       gridanglez="30"
       visible="false" /><sodipodi:guide
       position="38.058192,320.18148"
       orientation="1,0"
       id="guide87"
       inkscape:locked="false" /><sodipodi:guide
       position="42.203178,81.233758"
       orientation="0,-1"
       id="guide1"
       inkscape:locked="false" /></sodipodi:namedview><defs
     id="defs1"><rect
       x="-470.49783"
       y="425.7142"
       width="10.791216"
       height="39.688164"
       id="rect86" /><inkscape:path-effect
       effect="interpolate"
       id="path-effect84"
       is_visible="true"
       lpeversion="1"
       trajectory="m 55.145555,178.8925 2.104444,-46.89078"
       equidistant_spacing="true"
       steps="7" /><inkscape:path-effect
       effect="interpolate"
       id="path-effect83"
       is_visible="true"
       lpeversion="1"
       trajectory="m 132.61459,158.50086 -150.430214,-10e-6"
       equidistant_spacing="true"
       steps="16" /><linearGradient
       id="linearGradient4"
       inkscape:collect="always"><stop
         style="stop-color:#010008;stop-opacity:1;"
         offset="0"
         id="stop11" /><stop
         style="stop-color:#360091;stop-opacity:1;"
         offset="0.31034482"
         id="stop13" /><stop
         style="stop-color:#fb01b6;stop-opacity:1;"
         offset="0.61329669"
         id="stop14" /><stop
         style="stop-color:#fc01b7;stop-opacity:1;"
         offset="0.61329669"
         id="stop15" /><stop
         style="stop-color:#02002e;stop-opacity:1;"
         offset="0.68965513"
         id="stop16" /><stop
         style="stop-color:#02002e;stop-opacity:1;"
         offset="1"
         id="stop12" /></linearGradient><linearGradient
       id="linearGradient9"
       inkscape:collect="always"><stop
         style="stop-color:#fe01b8;stop-opacity:1;"
         offset="0"
         id="stop9" /><stop
         style="stop-color:#be01fe;stop-opacity:1;"
         offset="1"
         id="stop10" /></linearGradient><linearGradient
       id="linearGradient3"
       inkscape:collect="always"><stop
         style="stop-color:#ffd700;stop-opacity:1;"
         offset="0.53566623"
         id="stop3" /><stop
         style="stop-color:#fffbe5;stop-opacity:1;"
         offset="1"
         id="stop4" /></linearGradient><clipPath
       clipPathUnits="userSpaceOnUse"
       id="clipPath30"><path
         id="path31"
         style="fill:url(#radialGradient31);stroke-width:0.079375;stroke-linejoin:bevel"
         d="M 88.568723,112.72382 A 35.995845,35.776173 0 0 1 52.572875,148.5 35.995845,35.776173 0 0 1 16.57703,112.72382 35.995845,35.776173 0 0 1 52.572875,76.947652 35.995845,35.776173 0 0 1 88.568723,112.72382 Z" /></clipPath><radialGradient
       inkscape:collect="always"
       xlink:href="#linearGradient3"
       id="radialGradient31"
       gradientUnits="userSpaceOnUse"
       gradientTransform="matrix(1,0,0,0.99389726,0,0.68792378)"
       cx="52.572876"
       cy="112.72382"
       fx="52.572876"
       fy="112.72382"
       r="35.995846" /><clipPath
       clipPathUnits="userSpaceOnUse"
       id="clipPath84"><rect
         style="fill:url(#linearGradient85);stroke:none;stroke-width:1;stroke-linejoin:bevel;stroke-opacity:1"
         id="rect85"
         width="175"
         height="145"
         x="-30.000002"
         y="39.999996"
         rx="0.18062125" /></clipPath><linearGradient
       inkscape:collect="always"
       xlink:href="#linearGradient4"
       id="linearGradient85"
       gradientUnits="userSpaceOnUse"
       x1="55"
       y1="40"
       x2="55"
       y2="185" /><clipPath
       clipPathUnits="userSpaceOnUse"
       id="clipPath86"><rect
         style="fill:url(#linearGradient87);stroke:none;stroke-width:0.687934;stroke-linejoin:bevel;stroke-opacity:1"
         id="rect87"
         width="147.27838"
         height="81.538017"
         x="34.969051"
         y="78.465294"
         rx="0.15200919" /></clipPath><linearGradient
       inkscape:collect="always"
       xlink:href="#linearGradient4"
       id="linearGradient87"
       gradientUnits="userSpaceOnUse"
       gradientTransform="matrix(0.84159082,0,0,0.56233118,60.216779,55.972047)"
       x1="55"
       y1="40"
       x2="55"
       y2="185" /><radialGradient
       inkscape:collect="always"
       xlink:href="#linearGradient3"
       id="radialGradient111"
       gradientUnits="userSpaceOnUse"
       gradientTransform="matrix(1,0,0,0.99389726,57.427125,-21.25972)"
       cx="52.572876"
       cy="112.72382"
       fx="52.572876"
       fy="112.72382"
       r="35.995846" /><clipPath
       clipPathUnits="userSpaceOnUse"
       id="clipPath30-2"><path
         id="path31-9"
         style="fill:url(#radialGradient31-0);stroke-width:0.079375;stroke-linejoin:bevel"
         d="M 88.568723,112.72382 A 35.995845,35.776173 0 0 1 52.572875,148.5 35.995845,35.776173 0 0 1 16.57703,112.72382 35.995845,35.776173 0 0 1 52.572875,76.947652 35.995845,35.776173 0 0 1 88.568723,112.72382 Z" /></clipPath><radialGradient
       inkscape:collect="always"
       xlink:href="#linearGradient3"
       id="radialGradient31-0"
       gradientUnits="userSpaceOnUse"
       gradientTransform="matrix(1,0,0,0.99389726,0,0.68792378)"
       cx="52.572876"
       cy="112.72382"
       fx="52.572876"
       fy="112.72382"
       r="35.995846" /><radialGradient
       inkscape:collect="always"
       xlink:href="#linearGradient9"
       id="radialGradient112"
       gradientUnits="userSpaceOnUse"
       gradientTransform="matrix(1,0,0,0.04,0,129.6)"
       cx="52.5"
       cy="135"
       fx="52.5"
       fy="135"
       r="37.5" /><radialGradient
       inkscape:collect="always"
       xlink:href="#linearGradient9"
       id="radialGradient113"
       gradientUnits="userSpaceOnUse"
       gradientTransform="matrix(1,0,0,0.04,1.0708334e-6,124.6)"
       cx="52.5"
       cy="135"
       fx="52.5"
       fy="135"
       r="37.5" /><radialGradient
       inkscape:collect="always"
       xlink:href="#linearGradient9"
       id="radialGradient114"
       gradientUnits="userSpaceOnUse"
       gradientTransform="matrix(1,0,0,0.04,1.0708334e-6,119.30833)"
       cx="52.5"
       cy="135"
       fx="52.5"
       fy="135"
       r="37.5" /><radialGradient
       inkscape:collect="always"
       xlink:href="#linearGradient9"
       id="radialGradient115"
       gradientUnits="userSpaceOnUse"
       gradientTransform="matrix(1,0,0,0.04,1.0708334e-6,114.01666)"
       cx="52.5"
       cy="135"
       fx="52.5"
       fy="135"
       r="37.5" /><radialGradient
       inkscape:collect="always"
       xlink:href="#linearGradient9"
       id="radialGradient116"
       gradientUnits="userSpaceOnUse"
       gradientTransform="matrix(1,0,0,0.04,1.0708334e-6,108.72499)"
       cx="52.5"
       cy="135"
       fx="52.5"
       fy="135"
       r="37.5" /><radialGradient
       inkscape:collect="always"
       xlink:href="#linearGradient9"
       id="radialGradient117"
       gradientUnits="userSpaceOnUse"
       gradientTransform="matrix(1,0,0,0.04,0,134.89167)"
       cx="52.5"
       cy="135"
       fx="52.5"
       fy="135"
       r="37.5" /><radialGradient
       inkscape:collect="always"
       xlink:href="#linearGradient9"
       id="radialGradient118"
       gradientUnits="userSpaceOnUse"
       gradientTransform="matrix(1,0,0,0.04,0,140.18334)"
       cx="52.5"
       cy="135"
       fx="52.5"
       fy="135"
       r="37.5" /><linearGradient
       inkscape:collect="always"
       xlink:href="#linearGradient1"
       id="linearGradient118"
       gradientUnits="userSpaceOnUse"
       gradientTransform="matrix(0.59391834,0,0,0.59391834,71.255425,2.19191)"
       x1="54.437092"
       y1="107.9383"
       x2="54.926373"
       y2="138.70549" /><linearGradient
       id="linearGradient1"
       inkscape:collect="always"><stop
         style="stop-color:#efc2f1;stop-opacity:1;"
         offset="0"
         id="stop19" /><stop
         style="stop-color:#f3f2f3;stop-opacity:1;"
         offset="0.44976184"
         id="stop20" /><stop
         style="stop-color:#ffffff;stop-opacity:1;"
         offset="0.48707092"
         id="stop21" /><stop
         style="stop-color:#4c3e4d;stop-opacity:1;"
         offset="0.51548201"
         id="stop22" /><stop
         style="stop-color:#2f1c2f;stop-opacity:1;"
         offset="0.59253025"
         id="stop23" /><stop
         style="stop-color:#ebcdeb;stop-opacity:1;"
         offset="1"
         id="stop24" /></linearGradient><linearGradient
       inkscape:collect="always"
       xlink:href="#linearGradient1"
       id="linearGradient119"
       gradientUnits="userSpaceOnUse"
       gradientTransform="matrix(0.59391834,0,0,0.59391834,71.255425,22.620244)"
       x1="54.437092"
       y1="107.9383"
       x2="54.926373"
       y2="138.70549" /><filter
       inkscape:collect="always"
       style="color-interpolation-filters:sRGB"
       id="filter21"
       x="-0.011998035"
       y="-0.021034096"
       width="1.0239953"
       height="1.0420682"><feGaussianBlur
         inkscape:collect="always"
         stdDeviation="0.4187662"
         id="feGaussianBlur21" /></filter></defs><g
     inkscape:label="Layer 1"
     inkscape:groupmode="layer"
     id="layer1"
     transform="translate(-71.941843,-63.181471)"><g
       inkscape:label="Layer 1"
       id="g21"
       transform="matrix(0.75834738,0,0,0.75834736,25.781681,22.613665)"
       style="fill:#000000;fill-opacity:0.8;stroke:#000000;stroke-opacity:0.8;filter:url(#filter21)"><g
         id="g1"
         transform="translate(0,-12.170835)"
         style="fill:#000000;fill-opacity:0.8;stroke:#000000;stroke-opacity:0.8" /><ellipse
         style="fill:#000000;fill-opacity:0.8;stroke:#000000;stroke-width:1;stroke-linejoin:bevel;stroke-dasharray:none;stroke-opacity:0.8"
         id="ellipse1"
         cx="110"
         cy="90.77623"
         rx="35.995846"
         ry="35.776173" /><g
         id="g15"
         clip-path="url(#clipPath30-2)"
         style="opacity:0.608011;fill:#000000;fill-opacity:0.8;stroke:#000000;stroke-opacity:0.8"
         transform="translate(57.427125,-21.94765)"><g
           id="g2"
           style="fill:#000000;fill-opacity:0.8;stroke:#000000;stroke-opacity:0.8"><path
             style="color:#000000;fill:#000000;fill-opacity:0.8;stroke:#000000;stroke-linejoin:bevel;stroke-opacity:0.8;-inkscape-stroke:none"
             d="M 15,135 H 90.000001"
             id="path1" /><path
             style="color:#000000;fill:#000000;fill-opacity:0.8;stroke:#000000;stroke-linejoin:bevel;stroke-opacity:0.8;-inkscape-stroke:none"
             d="m 15,133.5 v 3 h 75 v -3 z"
             id="path2" /></g><g
           id="g4"
           style="fill:#000000;fill-opacity:0.8;stroke:#000000;stroke-opacity:0.8"><path
             style="color:#000000;fill:#000000;fill-opacity:0.8;stroke:#000000;stroke-linejoin:bevel;stroke-opacity:0.8;-inkscape-stroke:none"
             d="M 15.000001,130 H 90.000002"
             id="path3" /><path
             style="color:#000000;fill:#000000;fill-opacity:0.8;stroke:#000000;stroke-linejoin:bevel;stroke-opacity:0.8;-inkscape-stroke:none"
             d="m 15,128.5 v 3 h 75 v -3 z"
             id="path4" /></g><g
           id="g6"
           style="fill:#000000;fill-opacity:0.8;stroke:#000000;stroke-opacity:0.8"><path
             style="color:#000000;fill:#000000;fill-opacity:0.8;stroke:#000000;stroke-linejoin:bevel;stroke-opacity:0.8;-inkscape-stroke:none"
             d="M 15.000001,124.70833 H 90.000002"
             id="path5" /><path
             style="color:#000000;fill:#000000;fill-opacity:0.8;stroke:#000000;stroke-linejoin:bevel;stroke-opacity:0.8;-inkscape-stroke:none"
             d="m 15,123.20898 v 3 h 75 v -3 z"
             id="path6" /></g><g
           id="g8"
           style="fill:#000000;fill-opacity:0.8;stroke:#000000;stroke-opacity:0.8"><path
             style="color:#000000;fill:#000000;fill-opacity:0.8;stroke:#000000;stroke-linejoin:bevel;stroke-opacity:0.8;-inkscape-stroke:none"
             d="M 15.000001,119.41666 H 90.000002"
             id="path7" /><path
             style="color:#000000;fill:#000000;fill-opacity:0.8;stroke:#000000;stroke-linejoin:bevel;stroke-opacity:0.8;-inkscape-stroke:none"
             d="m 15,117.91602 v 3 h 75 v -3 z"
             id="path8" /></g><g
           id="g10"
           style="fill:#000000;fill-opacity:0.8;stroke:#000000;stroke-opacity:0.8"><path
             style="color:#000000;fill:#000000;fill-opacity:0.8;stroke:#000000;stroke-linejoin:bevel;stroke-opacity:0.8;-inkscape-stroke:none"
             d="M 15.000001,114.12499 H 90.000002"
             id="path9" /><path
             style="color:#000000;fill:#000000;fill-opacity:0.8;stroke:#000000;stroke-linejoin:bevel;stroke-opacity:0.8;-inkscape-stroke:none"
             d="m 15,112.625 v 3 h 75 v -3 z"
             id="path10" /></g><g
           id="g12"
           style="fill:#000000;fill-opacity:0.8;stroke:#000000;stroke-opacity:0.8"><path
             style="color:#000000;fill:#000000;fill-opacity:0.8;stroke:#000000;stroke-linejoin:bevel;stroke-opacity:0.8;-inkscape-stroke:none"
             d="M 15,140.29167 H 90.000001"
             id="path11" /><path
             style="color:#000000;fill:#000000;fill-opacity:0.8;stroke:#000000;stroke-linejoin:bevel;stroke-opacity:0.8;-inkscape-stroke:none"
             d="m 15,138.79102 v 3 h 75 v -3 z"
             id="path12" /></g><g
           id="g14"
           style="fill:#000000;fill-opacity:0.8;stroke:#000000;stroke-opacity:0.8"><path
             style="color:#000000;fill:#000000;fill-opacity:0.8;stroke:#000000;stroke-linejoin:bevel;stroke-opacity:0.8;-inkscape-stroke:none"
             d="M 15,145.58334 H 90.000001"
             id="path13" /><path
             style="color:#000000;fill:#000000;fill-opacity:0.8;stroke:#000000;stroke-linejoin:bevel;stroke-opacity:0.8;-inkscape-stroke:none"
             d="m 15,144.08398 v 3 h 75 v -3 z"
             id="path14" /></g></g><g
         id="g17"
         transform="translate(0.32515589)"
         style="fill:#000000;fill-opacity:0.8;stroke:#000000;stroke-width:1.00053;stroke-miterlimit:4;stroke-dasharray:none;stroke-opacity:0.8"><path
           style="font-size:24.7266px;font-family:'Fugaz One';-inkscape-font-specification:'Fugaz One';text-align:center;text-anchor:middle;opacity:0.779685;stroke-linejoin:bevel"
           d="m 98.901483,66.239359 -5.662391,8.975756 2.522113,8.827396 h -4.698054 l -1.854495,-6.527823 h -1.953402 l -1.16215,6.527823 h -4.450788 l 3.140278,-17.803152 h 4.450788 l -1.310509,7.41798 h 1.582502 l 4.698054,-7.41798 z m 6.750367,0 2.64574,8.530677 5.68712,-8.530677 h 4.67333 l -3.14028,17.803152 h -4.47551 l 1.78031,-10.039 -3.80789,5.983837 h -3.23919 l -1.68141,-5.983837 -1.78031,10.039 h -4.450791 l 3.140281,-17.803152 z m 21.16599,0 2.64575,8.530677 5.68712,-8.530677 h 4.67332 l -3.14027,17.803152 h -4.47552 l 1.78032,-10.039 -3.8079,5.983837 h -3.23919 l -1.6814,-5.983837 -1.78032,10.039 h -4.45079 l 3.14028,-17.803152 z"
           id="text15"
           aria-label="KMM" /><path
           style="font-size:24.7266px;font-family:'Fugaz One';-inkscape-font-specification:'Fugaz One';text-align:center;text-anchor:middle;opacity:0.779685;stroke-linejoin:bevel"
           d="m 96.784822,67.297701 -5.662391,8.975756 2.522113,8.827396 H 88.94649 L 87.091995,78.57303 h -1.953402 l -1.16215,6.527823 h -4.450788 l 3.140278,-17.803152 h 4.450788 l -1.31051,7.41798 h 1.582503 l 4.698054,-7.41798 z m 6.750368,0 2.64574,8.530677 5.68712,-8.530677 h 4.67333 l -3.14028,17.803152 h -4.47551 l 1.78031,-10.039 -3.80789,5.983837 h -3.23919 l -1.68141,-5.983837 -1.78031,10.039 h -4.450792 l 3.140279,-17.803152 z m 21.16599,0 2.64575,8.530677 5.68711,-8.530677 h 4.67333 l -3.14028,17.803152 h -4.47551 l 1.78031,-10.039 -3.80789,5.983837 h -3.23919 l -1.68141,-5.983837 -1.78031,10.039 h -4.45079 l 3.14028,-17.803152 z"
           id="text16"
           aria-label="KMM" /><path
           style="font-size:24.7266px;font-family:'Fugaz One';-inkscape-font-specification:'Fugaz One';text-align:center;text-anchor:middle;stroke-linejoin:bevel"
           d="m 97.843156,66.768533 -5.662391,8.975756 2.522113,8.827397 h -4.698054 l -1.854495,-6.527823 h -1.953401 l -1.162151,6.527823 h -4.450788 l 3.140278,-17.803153 h 4.450789 l -1.31051,7.417981 h 1.582502 l 4.698054,-7.417981 z m 6.750364,0 2.64575,8.530678 5.68712,-8.530678 h 4.67332 l -3.14027,17.803153 h -4.47552 l 1.78032,-10.039 -3.8079,5.983837 h -3.23919 l -1.6814,-5.983837 -1.78032,10.039 h -4.450787 l 3.140278,-17.803153 z m 21.16599,0 2.64575,8.530678 5.68712,-8.530678 h 4.67333 l -3.14028,17.803153 h -4.47552 l 1.78032,-10.039 -3.8079,5.983837 h -3.23918 l -1.68141,-5.983837 -1.78032,10.039 h -4.45078 l 3.14027,-17.803153 z"
           id="text17"
           aria-label="KMM" /></g><g
         id="g20"
         transform="translate(-0.41666407)"
         style="fill:#000000;fill-opacity:0.8;stroke:#000000;stroke-opacity:0.8"><path
           style="font-size:24.7266px;font-family:'Fugaz One';-inkscape-font-specification:'Fugaz One';text-align:center;text-anchor:middle;opacity:0.779685;stroke-width:0.296959;stroke-linejoin:bevel"
           d="m 74.867251,86.66768 q 2.818833,0 4.00571,1.23633 0.890157,0.939611 0.890157,2.373754 0,0.494532 -0.09891,1.038517 l -0.346173,1.928675 q -0.296719,1.607229 -1.038517,2.596293 -0.717071,0.989064 -1.607229,1.409416 l 2.250121,7.220165 H 73.92764 l -2.077034,-6.651453 h -1.533049 l -1.013791,6.651453 h -4.747507 l 3.140278,-17.80315 z m -1.557776,3.85735 H 71.45498 l -0.642891,4.302429 h 1.730862 q 1.31051,0 1.879222,-0.618165 0.568711,-0.642892 0.568711,-1.681409 0,-2.002855 -1.681409,-2.002855 z m 19.880191,13.9458 H 80.776912 l 3.140279,-17.80315 h 12.412753 l -0.692345,3.85735 h -7.961965 l -0.568712,3.338091 h 6.577276 l -0.692345,3.85735 h -6.577276 l -0.494532,2.893009 h 7.961966 z m 7.566354,-5.06895 q 0,1.70614 2.44793,1.70614 2.47266,0 2.47266,-1.533054 0,-0.815978 -0.8407,-1.335237 -0.84071,-0.519258 -2.05231,-0.865431 -1.18688,-0.346172 -2.39848,-0.791251 -1.186876,-0.469805 -2.02758,-1.434143 -0.840705,-0.989064 -0.840705,-2.447933 0,-6.206377 7.986695,-6.206377 2.91774,0 4.40133,1.112697 1.50832,1.087971 1.50832,3.041372 0,0.717071 -0.19781,1.38469 -0.17308,0.642891 -0.3709,0.914884 l -0.19781,0.296719 h -4.37661 q 0.54399,-0.568712 0.54399,-1.434143 0,-1.607229 -2.10176,-1.607229 -2.64575,0 -2.64575,1.681409 0,0.840705 0.8407,1.335237 0.84071,0.494532 2.02759,0.791251 1.2116,0.271992 2.4232,0.692345 1.21161,0.420352 2.05231,1.409416 0.8407,0.964337 0.8407,2.522113 0,3.140275 -1.87922,4.673325 -1.87922,1.50833 -5.78602,1.50833 -3.906805,0 -5.340948,-1.38469 -1.063243,-1.03852 -1.063243,-2.86829 0,-0.692345 0.148359,-1.508323 l 0.07418,-0.395625 h 4.450792 l -0.0495,0.296719 q -0.0494,0.247266 -0.0494,0.445079 z m 23.56447,3.78317 q -1.9534,1.63196 -5.53876,1.63196 -3.58536,0 -4.97005,-1.65669 -0.98906,-1.13742 -0.98906,-3.14028 0,-0.890153 0.19781,-1.953397 l 2.00286,-11.398963 h 4.45079 l -2.00286,11.300057 q -0.0989,0.618165 -0.0989,1.285783 0,1.73086 2.07704,1.73086 1.23633,0 1.97813,-0.64289 0.74179,-0.642891 1.03851,-2.373753 l 2.00286,-11.300057 h 4.45079 l -2.00286,11.398963 q -0.61816,3.461727 -2.59629,5.118407 z m 16.09701,1.28578 h -11.27533 l 3.14028,-17.80315 h 4.45079 l -2.44793,13.9458 h 6.82454 z m 17.28389,-13.9458 h -6.08275 l -2.44793,13.9458 h -4.47552 l 2.44794,-13.9458 h -6.10747 l 0.69234,-3.85735 h 16.66573 z"
           id="text18"
           aria-label="RESULT" /><path
           style="font-size:24.7266px;font-family:'Fugaz One';-inkscape-font-specification:'Fugaz One';text-align:center;text-anchor:middle;opacity:0.779685;stroke-width:0.296959;stroke-linejoin:bevel"
           d="m 72.75059,87.726015 q 2.818833,0 4.00571,1.23633 0.890157,0.939611 0.890157,2.373753 0,0.494532 -0.09891,1.038518 l -0.346173,1.928674 q -0.296719,1.60723 -1.038517,2.596294 -0.717071,0.989064 -1.607229,1.409416 l 2.250121,7.22017 h -4.994774 l -2.077034,-6.651458 h -1.533049 l -1.013791,6.651458 h -4.747507 l 3.140278,-17.803155 z m -1.557776,3.857349 h -1.854495 l -0.642891,4.302429 h 1.730862 q 1.31051,0 1.879221,-0.618165 0.568712,-0.642892 0.568712,-1.681409 0,-2.002855 -1.681409,-2.002855 z M 91.073005,105.52917 H 78.660251 L 81.80053,87.726015 h 12.412753 l -0.692345,3.857349 h -7.961965 l -0.568712,3.338091 h 6.577276 l -0.692345,3.85735 h -6.577276 l -0.494532,2.893015 h 7.961966 z m 7.566354,-5.06896 q 0,1.70614 2.447931,1.70614 2.47266,0 2.47266,-1.53305 0,-0.815978 -0.8407,-1.335236 -0.84071,-0.519259 -2.05231,-0.865431 -1.186877,-0.346173 -2.39848,-0.791251 -1.186877,-0.469806 -2.027582,-1.434143 -0.840704,-0.989064 -0.840704,-2.447934 0,-6.206376 7.986696,-6.206376 2.91773,0 4.40133,1.112697 1.50832,1.08797 1.50832,3.041371 0,0.717072 -0.19781,1.38469 -0.17309,0.642892 -0.3709,0.914884 L 108.53,94.30329 h -4.37661 q 0.54399,-0.568711 0.54399,-1.434142 0,-1.607229 -2.10177,-1.607229 -2.645741,0 -2.645741,1.681408 0,0.840705 0.840701,1.335237 0.84071,0.494532 2.02758,0.791251 1.21161,0.271993 2.42321,0.692345 1.2116,0.420352 2.05231,1.409416 0.8407,0.964338 0.8407,2.522113 0,3.140281 -1.87922,4.673331 -1.87922,1.50832 -5.78602,1.50832 -3.906806,0 -5.340949,-1.38469 -1.063243,-1.03852 -1.063243,-2.86829 0,-0.69234 0.148359,-1.50832 l 0.07418,-0.395624 h 4.450788 l -0.04945,0.296724 q -0.04945,0.24726 -0.04945,0.44507 z m 23.564471,3.78317 q -1.9534,1.63196 -5.53876,1.63196 -3.58536,0 -4.97005,-1.65668 -0.98906,-1.13743 -0.98906,-3.14028 0,-0.89016 0.19781,-1.953402 l 2.00286,-11.398963 h 4.45078 l -2.00285,11.300056 q -0.0989,0.618165 -0.0989,1.285779 0,1.73087 2.07704,1.73087 1.23633,0 1.97813,-0.6429 0.74179,-0.64289 1.03851,-2.373749 l 2.00286,-11.300056 h 4.45079 l -2.00286,11.398963 q -0.61816,3.461722 -2.59629,5.118402 z m 16.09701,1.28579 h -11.27533 l 3.14028,-17.803155 h 4.45079 l -2.44793,13.945805 h 6.82454 z m 17.28388,-13.945806 h -6.08274 l -2.44793,13.945806 h -4.47552 l 2.44794,-13.945806 H 138.919 l 0.69234,-3.857349 h 16.66573 z"
           id="text19"
           aria-label="RESULT" /><path
           style="font-size:24.7266px;font-family:'Fugaz One';-inkscape-font-specification:'Fugaz One';text-align:center;text-anchor:middle;stroke-width:0.296959;stroke-linejoin:bevel"
           d="m 73.808925,87.196848 q 2.818832,0 4.005709,1.23633 0.890158,0.93961 0.890158,2.373753 0,0.494532 -0.09891,1.038517 l -0.346172,1.928675 q -0.296719,1.607229 -1.038518,2.596293 -0.717071,0.989064 -1.607229,1.409417 L 77.864087,105 H 72.869314 L 70.792279,98.348544 H 69.25923 L 68.245439,105 H 63.497932 L 66.63821,87.196848 Z m -1.557776,3.857349 h -1.854495 l -0.642892,4.302429 h 1.730862 q 1.31051,0 1.879222,-0.618165 0.568712,-0.642892 0.568712,-1.681409 0,-2.002855 -1.681409,-2.002855 z M 92.131339,105 H 79.718586 l 3.140278,-17.803152 h 12.412753 l -0.692344,3.857349 h -7.961966 l -0.568712,3.338091 h 6.577276 l -0.692345,3.85735 h -6.577275 l -0.494532,2.893012 h 7.961965 z m 7.566354,-5.068953 q 0,1.706133 2.447937,1.706133 2.47266,0 2.47266,-1.53305 0,-0.815975 -0.84071,-1.335233 -0.8407,-0.519259 -2.05231,-0.865431 -1.18687,-0.346173 -2.398476,-0.791252 -1.186877,-0.469805 -2.027581,-1.434142 -0.840705,-0.989064 -0.840705,-2.447934 0,-6.206377 7.986692,-6.206377 2.91774,0 4.40134,1.112697 1.50832,1.087971 1.50832,3.041372 0,0.717072 -0.19781,1.38469 -0.17309,0.642891 -0.3709,0.914884 l -0.19782,0.296719 h -4.3766 q 0.54398,-0.568712 0.54398,-1.434143 0,-1.607229 -2.10176,-1.607229 -2.64575,0 -2.64575,1.681409 0,0.840705 0.84071,1.335237 0.8407,0.494532 2.02758,0.791251 1.2116,0.271993 2.42321,0.692345 1.2116,0.420352 2.0523,1.409416 0.84071,0.964337 0.84071,2.522113 0,3.140278 -1.87922,4.673328 -1.87923,1.50832 -5.78603,1.50832 -3.906801,0 -5.340944,-1.38469 -1.063244,-1.03851 -1.063244,-2.86828 0,-0.69235 0.14836,-1.508326 l 0.07418,-0.395625 h 4.450788 l -0.04945,0.296719 q -0.04945,0.247266 -0.04945,0.445079 z m 23.564467,3.783173 q -1.9534,1.63195 -5.53876,1.63195 -3.58535,0 -4.97004,-1.65668 -0.98907,-1.13742 -0.98907,-3.14028 0,-0.890156 0.19782,-1.9534 l 2.00285,-11.398962 h 4.45079 l -2.00286,11.300056 q -0.0989,0.618165 -0.0989,1.285783 0,1.730863 2.07703,1.730863 1.23633,0 1.97813,-0.64289 0.7418,-0.64289 1.03852,-2.373756 l 2.00285,-11.300056 h 4.45079 l -2.00285,11.398962 q -0.61817,3.46172 -2.5963,5.11841 z M 139.35918,105 h -11.27533 l 3.14028,-17.803152 h 4.45078 l -2.44793,13.945802 h 6.82454 z m 17.28388,-13.945803 h -6.08274 L 148.11238,105 h -4.47551 l 2.44793,-13.945803 h -6.10747 l 0.69234,-3.857349 h 16.66573 z"
           id="text20"
           aria-label="RESULT" /></g></g><g
       id="g81"
       transform="translate(0,-12.170835)" /><text
       xml:space="preserve"
       style="font-size:5.64444px;font-family:VALORANT;-inkscape-font-specification:VALORANT;letter-spacing:0px;fill:#a7a7a7;stroke-width:0.277;stroke-linejoin:bevel;stroke-miterlimit:64.6"
       x="-140.01971"
       y="60.93486"
       id="text2"><tspan
         sodipodi:role="line"
         id="tspan2"
         style="stroke-width:0.277"
         x="-140.01971"
         y="60.93486" /></text><g
       inkscape:label="Layer 1"
       id="g108"
       transform="matrix(0.75834738,0,0,0.75834736,26.581788,21.936315)"><g
         id="g80"
         transform="translate(0,-12.170835)" /><ellipse
         style="fill:url(#radialGradient111);fill-opacity:1;stroke:#ffffff;stroke-width:1;stroke-linejoin:bevel;stroke-dasharray:none;stroke-opacity:1"
         id="ellipse80"
         cx="110"
         cy="90.77623"
         rx="35.995846"
         ry="35.776173" /><g
         id="g102"
         clip-path="url(#clipPath30-2)"
         style="opacity:0.608011"
         transform="translate(57.427125,-21.94765)"><g
           id="g85"><path
             style="color:#000000;fill:#fe01b8;stroke-linejoin:bevel;-inkscape-stroke:none"
             d="M 15,135 H 90.000001"
             id="path83" /><path
             style="color:#000000;fill:url(#radialGradient112);stroke-linejoin:bevel;-inkscape-stroke:none"
             d="m 15,133.5 v 3 h 75 v -3 z"
             id="path85" /></g><g
           id="g89"><path
             style="color:#000000;fill:#fe01b8;stroke-linejoin:bevel;-inkscape-stroke:none"
             d="M 15.000001,130 H 90.000002"
             id="path87" /><path
             style="color:#000000;fill:url(#radialGradient113);stroke-linejoin:bevel;-inkscape-stroke:none"
             d="m 15,128.5 v 3 h 75 v -3 z"
             id="path89" /></g><g
           id="g92"><path
             style="color:#000000;fill:#fe01b8;stroke-linejoin:bevel;-inkscape-stroke:none"
             d="M 15.000001,124.70833 H 90.000002"
             id="path91" /><path
             style="color:#000000;fill:url(#radialGradient114);stroke-linejoin:bevel;-inkscape-stroke:none"
             d="m 15,123.20898 v 3 h 75 v -3 z"
             id="path92" /></g><g
           id="g94"><path
             style="color:#000000;fill:#fe01b8;stroke-linejoin:bevel;-inkscape-stroke:none"
             d="M 15.000001,119.41666 H 90.000002"
             id="path93" /><path
             style="color:#000000;fill:url(#radialGradient115);stroke-linejoin:bevel;-inkscape-stroke:none"
             d="m 15,117.91602 v 3 h 75 v -3 z"
             id="path94" /></g><g
           id="g96"><path
             style="color:#000000;fill:#fe01b8;stroke-linejoin:bevel;-inkscape-stroke:none"
             d="M 15.000001,114.12499 H 90.000002"
             id="path95" /><path
             style="color:#000000;fill:url(#radialGradient116);stroke-linejoin:bevel;-inkscape-stroke:none"
             d="m 15,112.625 v 3 h 75 v -3 z"
             id="path96" /></g><g
           id="g98"><path
             style="color:#000000;fill:#fe01b8;stroke-linejoin:bevel;-inkscape-stroke:none"
             d="M 15,140.29167 H 90.000001"
             id="path97" /><path
             style="color:#000000;fill:url(#radialGradient117);stroke-linejoin:bevel;-inkscape-stroke:none"
             d="m 15,138.79102 v 3 h 75 v -3 z"
             id="path98" /></g><g
           id="g101"><path
             style="color:#000000;fill:#fe01b8;stroke-linejoin:bevel;-inkscape-stroke:none"
             d="M 15,145.58334 H 90.000001"
             id="path99" /><path
             style="color:#000000;fill:url(#radialGradient118);stroke-linejoin:bevel;-inkscape-stroke:none"
             d="m 15,144.08398 v 3 h 75 v -3 z"
             id="path100" /></g></g><g
         id="g104"
         transform="translate(0.32515589)"
         style="stroke-width:1.00053;stroke-miterlimit:4;stroke-dasharray:none"><path
           style="font-size:24.7266px;font-family:'Fugaz One';-inkscape-font-specification:'Fugaz One';text-align:center;text-anchor:middle;opacity:0.779685;fill:#fe01b8;stroke:#fe01b8;stroke-linejoin:bevel"
           d="m 98.901483,66.239359 -5.662391,8.975756 2.522113,8.827396 h -4.698054 l -1.854495,-6.527823 h -1.953402 l -1.16215,6.527823 h -4.450788 l 3.140278,-17.803152 h 4.450788 l -1.310509,7.41798 h 1.582502 l 4.698054,-7.41798 z m 6.750367,0 2.64574,8.530677 5.68712,-8.530677 h 4.67333 l -3.14028,17.803152 h -4.47551 l 1.78031,-10.039 -3.80789,5.983837 h -3.23919 l -1.68141,-5.983837 -1.78031,10.039 h -4.450791 l 3.140281,-17.803152 z m 21.16599,0 2.64575,8.530677 5.68712,-8.530677 h 4.67332 l -3.14027,17.803152 h -4.47552 l 1.78032,-10.039 -3.8079,5.983837 h -3.23919 l -1.6814,-5.983837 -1.78032,10.039 h -4.45079 l 3.14028,-17.803152 z"
           id="text102"
           aria-label="KMM" /><path
           style="font-size:24.7266px;font-family:'Fugaz One';-inkscape-font-specification:'Fugaz One';text-align:center;text-anchor:middle;opacity:0.779685;fill:#01cefe;stroke:#01cefe;stroke-linejoin:bevel"
           d="m 96.784822,67.297701 -5.662391,8.975756 2.522113,8.827396 H 88.94649 L 87.091995,78.57303 h -1.953402 l -1.16215,6.527823 h -4.450788 l 3.140278,-17.803152 h 4.450788 l -1.31051,7.41798 h 1.582503 l 4.698054,-7.41798 z m 6.750368,0 2.64574,8.530677 5.68712,-8.530677 h 4.67333 l -3.14028,17.803152 h -4.47551 l 1.78031,-10.039 -3.80789,5.983837 h -3.23919 l -1.68141,-5.983837 -1.78031,10.039 h -4.450792 l 3.140279,-17.803152 z m 21.16599,0 2.64575,8.530677 5.68711,-8.530677 h 4.67333 l -3.14028,17.803152 h -4.47551 l 1.78031,-10.039 -3.80789,5.983837 h -3.23919 l -1.68141,-5.983837 -1.78031,10.039 h -4.45079 l 3.14028,-17.803152 z"
           id="text103"
           aria-label="KMM" /><path
           style="font-size:24.7266px;font-family:'Fugaz One';-inkscape-font-specification:'Fugaz One';text-align:center;text-anchor:middle;fill:url(#linearGradient118);stroke:#ffffff;stroke-linejoin:bevel"
           d="m 97.843156,66.768533 -5.662391,8.975756 2.522113,8.827397 h -4.698054 l -1.854495,-6.527823 h -1.953401 l -1.162151,6.527823 h -4.450788 l 3.140278,-17.803153 h 4.450789 l -1.31051,7.417981 h 1.582502 l 4.698054,-7.417981 z m 6.750364,0 2.64575,8.530678 5.68712,-8.530678 h 4.67332 l -3.14027,17.803153 h -4.47552 l 1.78032,-10.039 -3.8079,5.983837 h -3.23919 l -1.6814,-5.983837 -1.78032,10.039 h -4.450787 l 3.140278,-17.803153 z m 21.16599,0 2.64575,8.530678 5.68712,-8.530678 h 4.67333 l -3.14028,17.803153 h -4.47552 l 1.78032,-10.039 -3.8079,5.983837 h -3.23918 l -1.68141,-5.983837 -1.78032,10.039 h -4.45078 l 3.14027,-17.803153 z"
           id="text104"
           aria-label="KMM" /></g><g
         id="g107"
         transform="translate(-0.41666407)"><path
           style="font-size:24.7266px;font-family:'Fugaz One';-inkscape-font-specification:'Fugaz One';text-align:center;text-anchor:middle;opacity:0.779685;fill:#fe01b8;stroke:#fe01b8;stroke-width:0.296959;stroke-linejoin:bevel"
           d="m 74.867251,86.66768 q 2.818833,0 4.00571,1.23633 0.890157,0.939611 0.890157,2.373754 0,0.494532 -0.09891,1.038517 l -0.346173,1.928675 q -0.296719,1.607229 -1.038517,2.596293 -0.717071,0.989064 -1.607229,1.409416 l 2.250121,7.220165 H 73.92764 l -2.077034,-6.651453 h -1.533049 l -1.013791,6.651453 h -4.747507 l 3.140278,-17.80315 z m -1.557776,3.85735 H 71.45498 l -0.642891,4.302429 h 1.730862 q 1.31051,0 1.879222,-0.618165 0.568711,-0.642892 0.568711,-1.681409 0,-2.002855 -1.681409,-2.002855 z m 19.880191,13.9458 H 80.776912 l 3.140279,-17.80315 h 12.412753 l -0.692345,3.85735 h -7.961965 l -0.568712,3.338091 h 6.577276 l -0.692345,3.85735 h -6.577276 l -0.494532,2.893009 h 7.961966 z m 7.566354,-5.06895 q 0,1.70614 2.44793,1.70614 2.47266,0 2.47266,-1.533054 0,-0.815978 -0.8407,-1.335237 -0.84071,-0.519258 -2.05231,-0.865431 -1.18688,-0.346172 -2.39848,-0.791251 -1.186876,-0.469805 -2.02758,-1.434143 -0.840705,-0.989064 -0.840705,-2.447933 0,-6.206377 7.986695,-6.206377 2.91774,0 4.40133,1.112697 1.50832,1.087971 1.50832,3.041372 0,0.717071 -0.19781,1.38469 -0.17308,0.642891 -0.3709,0.914884 l -0.19781,0.296719 h -4.37661 q 0.54399,-0.568712 0.54399,-1.434143 0,-1.607229 -2.10176,-1.607229 -2.64575,0 -2.64575,1.681409 0,0.840705 0.8407,1.335237 0.84071,0.494532 2.02759,0.791251 1.2116,0.271992 2.4232,0.692345 1.21161,0.420352 2.05231,1.409416 0.8407,0.964337 0.8407,2.522113 0,3.140275 -1.87922,4.673325 -1.87922,1.50833 -5.78602,1.50833 -3.906805,0 -5.340948,-1.38469 -1.063243,-1.03852 -1.063243,-2.86829 0,-0.692345 0.148359,-1.508323 l 0.07418,-0.395625 h 4.450792 l -0.0495,0.296719 q -0.0494,0.247266 -0.0494,0.445079 z m 23.56447,3.78317 q -1.9534,1.63196 -5.53876,1.63196 -3.58536,0 -4.97005,-1.65669 -0.98906,-1.13742 -0.98906,-3.14028 0,-0.890153 0.19781,-1.953397 l 2.00286,-11.398963 h 4.45079 l -2.00286,11.300057 q -0.0989,0.618165 -0.0989,1.285783 0,1.73086 2.07704,1.73086 1.23633,0 1.97813,-0.64289 0.74179,-0.642891 1.03851,-2.373753 l 2.00286,-11.300057 h 4.45079 l -2.00286,11.398963 q -0.61816,3.461727 -2.59629,5.118407 z m 16.09701,1.28578 h -11.27533 l 3.14028,-17.80315 h 4.45079 l -2.44793,13.9458 h 6.82454 z m 17.28389,-13.9458 h -6.08275 l -2.44793,13.9458 h -4.47552 l 2.44794,-13.9458 h -6.10747 l 0.69234,-3.85735 h 16.66573 z"
           id="text105"
           aria-label="RESULT" /><path
           style="font-size:24.7266px;font-family:'Fugaz One';-inkscape-font-specification:'Fugaz One';text-align:center;text-anchor:middle;opacity:0.779685;fill:#01cefe;stroke:#01cefe;stroke-width:0.296959;stroke-linejoin:bevel"
           d="m 72.75059,87.726015 q 2.818833,0 4.00571,1.23633 0.890157,0.939611 0.890157,2.373753 0,0.494532 -0.09891,1.038518 l -0.346173,1.928674 q -0.296719,1.60723 -1.038517,2.596294 -0.717071,0.989064 -1.607229,1.409416 l 2.250121,7.22017 h -4.994774 l -2.077034,-6.651458 h -1.533049 l -1.013791,6.651458 h -4.747507 l 3.140278,-17.803155 z m -1.557776,3.857349 h -1.854495 l -0.642891,4.302429 h 1.730862 q 1.31051,0 1.879221,-0.618165 0.568712,-0.642892 0.568712,-1.681409 0,-2.002855 -1.681409,-2.002855 z M 91.073005,105.52917 H 78.660251 L 81.80053,87.726015 h 12.412753 l -0.692345,3.857349 h -7.961965 l -0.568712,3.338091 h 6.577276 l -0.692345,3.85735 h -6.577276 l -0.494532,2.893015 h 7.961966 z m 7.566354,-5.06896 q 0,1.70614 2.447931,1.70614 2.47266,0 2.47266,-1.53305 0,-0.815978 -0.8407,-1.335236 -0.84071,-0.519259 -2.05231,-0.865431 -1.186877,-0.346173 -2.39848,-0.791251 -1.186877,-0.469806 -2.027582,-1.434143 -0.840704,-0.989064 -0.840704,-2.447934 0,-6.206376 7.986696,-6.206376 2.91773,0 4.40133,1.112697 1.50832,1.08797 1.50832,3.041371 0,0.717072 -0.19781,1.38469 -0.17309,0.642892 -0.3709,0.914884 L 108.53,94.30329 h -4.37661 q 0.54399,-0.568711 0.54399,-1.434142 0,-1.607229 -2.10177,-1.607229 -2.645741,0 -2.645741,1.681408 0,0.840705 0.840701,1.335237 0.84071,0.494532 2.02758,0.791251 1.21161,0.271993 2.42321,0.692345 1.2116,0.420352 2.05231,1.409416 0.8407,0.964338 0.8407,2.522113 0,3.140281 -1.87922,4.673331 -1.87922,1.50832 -5.78602,1.50832 -3.906806,0 -5.340949,-1.38469 -1.063243,-1.03852 -1.063243,-2.86829 0,-0.69234 0.148359,-1.50832 l 0.07418,-0.395624 h 4.450788 l -0.04945,0.296724 q -0.04945,0.24726 -0.04945,0.44507 z m 23.564471,3.78317 q -1.9534,1.63196 -5.53876,1.63196 -3.58536,0 -4.97005,-1.65668 -0.98906,-1.13743 -0.98906,-3.14028 0,-0.89016 0.19781,-1.953402 l 2.00286,-11.398963 h 4.45078 l -2.00285,11.300056 q -0.0989,0.618165 -0.0989,1.285779 0,1.73087 2.07704,1.73087 1.23633,0 1.97813,-0.6429 0.74179,-0.64289 1.03851,-2.373749 l 2.00286,-11.300056 h 4.45079 l -2.00286,11.398963 q -0.61816,3.461722 -2.59629,5.118402 z m 16.09701,1.28579 h -11.27533 l 3.14028,-17.803155 h 4.45079 l -2.44793,13.945805 h 6.82454 z m 17.28388,-13.945806 h -6.08274 l -2.44793,13.945806 h -4.47552 l 2.44794,-13.945806 H 138.919 l 0.69234,-3.857349 h 16.66573 z"
           id="text106"
           aria-label="RESULT" /><path
           style="font-size:24.7266px;font-family:'Fugaz One';-inkscape-font-specification:'Fugaz One';text-align:center;text-anchor:middle;fill:url(#linearGradient119);stroke:#ffffff;stroke-width:0.296959;stroke-linejoin:bevel"
           d="m 73.808925,87.196848 q 2.818832,0 4.005709,1.23633 0.890158,0.93961 0.890158,2.373753 0,0.494532 -0.09891,1.038517 l -0.346172,1.928675 q -0.296719,1.607229 -1.038518,2.596293 -0.717071,0.989064 -1.607229,1.409417 L 77.864087,105 H 72.869314 L 70.792279,98.348544 H 69.25923 L 68.245439,105 H 63.497932 L 66.63821,87.196848 Z m -1.557776,3.857349 h -1.854495 l -0.642892,4.302429 h 1.730862 q 1.31051,0 1.879222,-0.618165 0.568712,-0.642892 0.568712,-1.681409 0,-2.002855 -1.681409,-2.002855 z M 92.131339,105 H 79.718586 l 3.140278,-17.803152 h 12.412753 l -0.692344,3.857349 h -7.961966 l -0.568712,3.338091 h 6.577276 l -0.692345,3.85735 h -6.577275 l -0.494532,2.893012 h 7.961965 z m 7.566354,-5.068953 q 0,1.706133 2.447937,1.706133 2.47266,0 2.47266,-1.53305 0,-0.815975 -0.84071,-1.335233 -0.8407,-0.519259 -2.05231,-0.865431 -1.18687,-0.346173 -2.398476,-0.791252 -1.186877,-0.469805 -2.027581,-1.434142 -0.840705,-0.989064 -0.840705,-2.447934 0,-6.206377 7.986692,-6.206377 2.91774,0 4.40134,1.112697 1.50832,1.087971 1.50832,3.041372 0,0.717072 -0.19781,1.38469 -0.17309,0.642891 -0.3709,0.914884 l -0.19782,0.296719 h -4.3766 q 0.54398,-0.568712 0.54398,-1.434143 0,-1.607229 -2.10176,-1.607229 -2.64575,0 -2.64575,1.681409 0,0.840705 0.84071,1.335237 0.8407,0.494532 2.02758,0.791251 1.2116,0.271993 2.42321,0.692345 1.2116,0.420352 2.0523,1.409416 0.84071,0.964337 0.84071,2.522113 0,3.140278 -1.87922,4.673328 -1.87923,1.50832 -5.78603,1.50832 -3.906801,0 -5.340944,-1.38469 -1.063244,-1.03851 -1.063244,-2.86828 0,-0.69235 0.14836,-1.508326 l 0.07418,-0.395625 h 4.450788 l -0.04945,0.296719 q -0.04945,0.247266 -0.04945,0.445079 z m 23.564467,3.783173 q -1.9534,1.63195 -5.53876,1.63195 -3.58535,0 -4.97004,-1.65668 -0.98907,-1.13742 -0.98907,-3.14028 0,-0.890156 0.19782,-1.9534 l 2.00285,-11.398962 h 4.45079 l -2.00286,11.300056 q -0.0989,0.618165 -0.0989,1.285783 0,1.730863 2.07703,1.730863 1.23633,0 1.97813,-0.64289 0.7418,-0.64289 1.03852,-2.373756 l 2.00285,-11.300056 h 4.45079 l -2.00285,11.398962 q -0.61817,3.46172 -2.5963,5.11841 z M 139.35918,105 h -11.27533 l 3.14028,-17.803152 h 4.45078 l -2.44793,13.945802 h 6.82454 z m 17.28388,-13.945803 h -6.08274 L 148.11238,105 h -4.47551 l 2.44793,-13.945803 h -6.10747 l 0.69234,-3.857349 h 16.66573 z"
           id="text107"
           aria-label="RESULT" /></g></g></g><text
     xml:space="preserve"
     transform="matrix(0.26458333,0,0,0.26458333,-49.025143,-23.181471)"
     id="text86"
     style="font-style:normal;font-variant:normal;font-weight:bold;font-stretch:normal;font-size:13.3333px;font-family:'Fantasque Sans Mono';-inkscape-font-specification:'Fantasque Sans Mono Bold';text-align:start;letter-spacing:0px;white-space:pre;shape-inside:url(#rect86);display:inline;opacity:1;fill:#463244;fill-opacity:1;stroke:none;stroke-width:7.55906;stroke-linecap:round;stroke-linejoin:round;stroke-dasharray:none" /></svg>
