<?xml version="1.0" encoding="UTF-8" standalone="no"?>
<svg
   xml:space="preserve"
   viewBox="0 0 46.582134 71.525936"
   version="1.1"
   id="svg3"
   sodipodi:docname="pupilid-opt.svg"
   width="46.582134"
   height="71.525932"
   inkscape:version="1.4 (e7c3feb1, 2024-10-09)"
   xmlns:inkscape="http://www.inkscape.org/namespaces/inkscape"
   xmlns:sodipodi="http://sodipodi.sourceforge.net/DTD/sodipodi-0.dtd"
   xmlns="http://www.w3.org/2000/svg"
   xmlns:svg="http://www.w3.org/2000/svg"><defs
     id="defs3"><filter
       inkscape:collect="always"
       style="color-interpolation-filters:sRGB"
       id="filter6"
       x="-0.04039956"
       y="-0.082819846"
       width="1.080792"
       height="1.1656398"><feGaussianBlur
         inkscape:collect="always"
         stdDeviation="0.2735"
         id="feGaussianBlur6" /></filter></defs><sodipodi:namedview
     id="namedview3"
     pagecolor="#ffffff"
     bordercolor="#000000"
     borderopacity="0.25"
     inkscape:showpageshadow="2"
     inkscape:pageopacity="0.0"
     inkscape:pagecheckerboard="0"
     inkscape:deskcolor="#d1d1d1"
     inkscape:zoom="5.3669363"
     inkscape:cx="4.0991729"
     inkscape:cy="53.009759"
     inkscape:window-width="1968"
     inkscape:window-height="1124"
     inkscape:window-x="0"
     inkscape:window-y="48"
     inkscape:window-maximized="0"
     inkscape:current-layer="svg3" /><g
     fill="#f69d21"
     stroke="#f69d21"
     stroke-miterlimit="64.6"
     id="g5"
     style="fill:#000000;fill-opacity:0.8;stroke:#000000;stroke-opacity:0.8;filter:url(#filter6)"
     transform="translate(1.741221,0.65639699)"><path
       stroke-linejoin="bevel"
       stroke-width="0.9"
       d="m 9,11 v 5.2 a 13,4.3 0 0 0 13,4.3 13,4.3 0 0 0 13,-4.3 v -5.3 l -13,3.3 z"
       id="path4"
       style="fill:#000000;fill-opacity:0.8;stroke:#000000;stroke-opacity:0.8" /><path
       stroke-linecap="round"
       stroke-linejoin="round"
       stroke-width="2"
       d="M 2,6 22,11 42,6 22,1 Z m 0,0 v 9 L 1,21 H 3 L 2,15"
       id="path5"
       style="fill:#000000;fill-opacity:0.8;stroke:#000000;stroke-opacity:0.8" /></g><path
     d="m 1.741221,60.556397 v -7.3 h 14.1 v 14.6 h -14.1 z m 12,-0.2 v -5.1 h -10.1 v 10.2 h 10.1 z m -8.1,0.1 v -3 h 6 v 6 h -5.9 z m 12.3,7.2 v -10.2 h 4 v -2.2 h -4 v -4 h -8.4 v -2 h 16.4 v 2 h 2 v -1 l 0.1,-1 h 2 v 2 h 2 v 2 h 2.2 v 2 h -2.2 v 2.2 h 2.2 v 4 h 4 v -4 h -2 v -2.1 h 1 l 1,-0.1 v 2.2 h 2 v 8 h 2 v 2.4 h -4 l -4,-0.1 v -2.3 h -2.2 v -1.8 h 2.1 v -2 h -2.1 v -4.1 h -4 v 4 h -2 v 2 h -2 v -2 h -4.2 v 6.4 h -1 c -0.6,0 -1,0 -1,-0.2 z m 20.4,-3.2 v -1 h -2 v 2 h 2 z m -12.3,-5 v -2 h -4.2 v 2 h 2.2 v 2 h 2 z m 0,-5.2 v -1 h -2 v -2 h -4.2 v 2 h 4.2 v 2 h 2 z m 4,0 v -1 h -2 v 2 h 2 z m -5.8,13.4 v -2.1 h 2 v 2.3 h -1 c -0.6,0 -1,0 -1,-0.2 z m 4,0 v -2.1 h 2 v 2.3 h -1 c -0.6,0 -1,0 -1,-0.2 z m 0,-5.1 v -1 h 1 l 1,-0.1 v 2 h -2 z m 14.3,-6.2 v -1 h 2.2 v 1 l 0.1,1 h -2.4 z m -2,-2 v -1 h 1 l 1,-0.1 v 2 h -2.1 z m -4,-2 v -1 l 1,-0.1 h 0.9 v -4 h -2 v 4 h -2 v -2 h -2.2 v -2 h 2.1 v -2.2 h -2.1 v -4 h 2.1 v 4 h 4.1 v 2.1 h 4 v 2 h -2 v 2 h -2 v 2 h -2 z m -33.1,-3.2 v -2 h -1.7 v -6.2 h 10 v 4 h -2.2 v 4.2 h -4 v 2 h -2 z m 4.3,-3 v -1 l 1,-0.1 h 1 v -2 h -2 v 2 h -2 v 2.1 h 2 z m 4,0 v -1 l 2.1,-0.1 h 2.1 v -2 h -2 v -2 h 8 v -4.1 h -2 v 2 h -2 v -2 l 0.1,-2.1 h 2 l 2,-0.1 v -2 h 2.1 v -1 l 0.1,-1 h 2 v 2 h 2 v 8.2 h 2 v 2 h -2 v 2 h -2 v 2.2 h -4.2 v -2.1 h -4 v 2.1 h -6.5 z m 14.4,-3.2 v -2 h -4.2 v 2 h 2.2 v 2 h 2 z m 0,-6 v -2.3 h -2 v 4.2 h 2 z m 2,9.2 0.1,-1 1,-0.1 h 1 v 2.1 h -2 z m 14.4,-2.1 v -1 h 2.2 v 1 l 0.1,1 h -2.4 z m -6,-2 v -1 h 1.9 v 2 h -2 z m 4,0 v -1 h 2 v 2 h -2.1 z m -38.8,-10.1 v -7.1 h 14.1 v 14.1 h -14.1 z m 12,-0.1 v -5.2 h -10.1 v 10.2 h 10.1 z m -8.1,0 v -3 l 3,-0.1 h 3 v 6 h -5.9 z m 24.5,0 v -7 h 14.6 v 14.1 h -14.6 z m 12.2,0 v -5.2 h -10.2 v 10.2 h 10.2 z m -8,0 v -3 l 3,-0.1 h 3 v 6 h -6 z m -16.4,0 v -1 h 1 l 1,-0.1 v -2 h 2 v 2 h -2 v 2 h -2.2 z m 0,-4.1 v -1 h 2 v -1.9 h 2 v 1.9 h -2 v 2 h -2.2 z m 6.2,0 v -1 h 2 v -1.9 h 2 v 1.9 h -2 v 2 h -2 z"
     id="path6"
     style="fill:#727272;fill-opacity:0.8;stroke:none;stroke-opacity:0.8;filter:url(#filter6)" /><g
     id="g3"
     transform="translate(2.3001991,0.09741887)"><g
       fill="#f69d21"
       stroke="#f69d21"
       stroke-miterlimit="64.6"
       id="g2"><path
         stroke-linejoin="bevel"
         stroke-width="0.9"
         d="m 9,11 v 5.2 a 13,4.3 0 0 0 13,4.3 13,4.3 0 0 0 13,-4.3 v -5.3 l -13,3.3 z"
         id="path1" /><path
         stroke-linecap="round"
         stroke-linejoin="round"
         stroke-width="2"
         d="M 2,6 22,11 42,6 22,1 Z m 0,0 v 9 L 1,21 H 3 L 2,15"
         id="path2" /></g><path
       d="M 0,59.9 V 52.6 H 14.1 V 67.2 H 0 Z M 12,59.7 V 54.6 H 1.9 V 64.8 H 12 Z m -8.1,0.1 v -3 h 6 v 6 H 4 Z M 16.2,67 V 56.8 h 4 v -2.2 h -4 v -4 H 7.8 v -2 h 16.4 v 2 h 2 v -1 l 0.1,-1 h 2 v 2 h 2 v 2 h 2.2 v 2 h -2.2 v 2.2 h 2.2 v 4 h 4 v -4 h -2 v -2.1 h 1 l 1,-0.1 v 2.2 h 2 v 8 h 2 v 2.4 h -4 l -4,-0.1 V 64.8 H 30.3 V 63 h 2.1 v -2 h -2.1 v -4.1 h -4 v 4 h -2 v 2 h -2 v -2 h -4.2 v 6.4 h -1 c -0.6,0 -1,0 -1,-0.2 z m 20.4,-3.2 v -1 h -2 v 2 h 2 z m -12.3,-5 v -2 h -4.2 v 2 h 2.2 v 2 h 2 z m 0,-5.2 v -1 h -2 v -2 h -4.2 v 2 h 4.2 v 2 h 2 z m 4,0 v -1 h -2 v 2 h 2 z M 22.5,67 v -2.1 h 2 v 2.3 h -1 c -0.6,0 -1,0 -1,-0.2 z m 4,0 v -2.1 h 2 v 2.3 h -1 c -0.6,0 -1,0 -1,-0.2 z m 0,-5.1 v -1 h 1 l 1,-0.1 v 2 h -2 z m 14.3,-6.2 v -1 H 43 v 1 l 0.1,1 h -2.4 z m -2,-2 v -1 h 1 l 1,-0.1 v 2 h -2.1 z m -4,-2 v -1 l 1,-0.1 h 0.9 v -4 h -2 v 4 h -2 v -2 h -2.2 v -2 h 2.1 v -2.2 h -2.1 v -4 h 2.1 v 4 h 4.1 v 2.1 h 4 v 2 h -2 v 2 h -2 v 2 h -2 z M 1.7,48.5 v -2 H 0 v -6.2 h 10 v 4 H 7.8 v 4.2 h -4 v 2 h -2 z m 4.3,-3 v -1 l 1,-0.1 h 1 v -2 H 6 v 2 H 4 v 2.1 h 2 z m 4,0 v -1 l 2.1,-0.1 h 2.1 v -2 h -2 v -2 h 8 v -4.1 h -2 v 2 h -2 v -2 l 0.1,-2.1 h 2 l 2,-0.1 v -2 h 2.1 v -1 l 0.1,-1 h 2 v 2 h 2 v 8.2 h 2 v 2 h -2 v 2 h -2 v 2.2 h -4.2 v -2.1 h -4 v 2.1 H 9.8 Z m 14.4,-3.2 v -2 h -4.2 v 2 h 2.2 v 2 h 2 z m 0,-6 V 34 h -2 v 4.2 h 2 z m 2,9.2 0.1,-1 1,-0.1 h 1 v 2.1 h -2 z m 14.4,-2.1 v -1 H 43 v 1 l 0.1,1 h -2.4 z m -6,-2 v -1 h 1.9 v 2 h -2 z m 4,0 v -1 h 2 v 2 H 38.7 Z M 0,31.3 V 24.2 H 14.1 V 38.3 H 0 Z M 12,31.2 V 26 H 1.9 V 36.2 H 12 Z m -8.1,0 v -3 l 3,-0.1 h 3 v 6 H 4 Z m 24.5,0 v -7 H 43 V 38.3 H 28.4 Z m 12.2,0 V 26 H 30.4 v 10.2 h 10.2 z m -8,0 v -3 l 3,-0.1 h 3 v 6 h -6 z m -16.4,0 v -1 h 1 l 1,-0.1 v -2 h 2 v 2 h -2 v 2 H 16 Z m 0,-4.1 v -1 h 2 v -1.9 h 2 v 1.9 h -2 v 2 H 16 Z m 6.2,0 v -1 h 2 v -1.9 h 2 v 1.9 h -2 v 2 h -2 z"
       id="path3" /></g></svg>
