<?xml version="1.0" encoding="UTF-8" standalone="no"?>
<!-- Created with Inkscape (http://www.inkscape.org/) -->

<svg
   width="49.609627mm"
   height="43.290188mm"
   viewBox="0 0 49.609627 43.290188"
   version="1.1"
   id="svg1"
   sodipodi:docname="signum.svg"
   inkscape:version="1.4 (e7c3feb1, 2024-10-09)"
   xmlns:inkscape="http://www.inkscape.org/namespaces/inkscape"
   xmlns:sodipodi="http://sodipodi.sourceforge.net/DTD/sodipodi-0.dtd"
   xmlns="http://www.w3.org/2000/svg"
   xmlns:svg="http://www.w3.org/2000/svg">
  <sodipodi:namedview
     id="namedview1"
     pagecolor="#ffffff"
     bordercolor="#000000"
     borderopacity="0.25"
     inkscape:showpageshadow="2"
     inkscape:pageopacity="0.0"
     inkscape:pagecheckerboard="0"
     inkscape:deskcolor="#d1d1d1"
     inkscape:document-units="mm"
     inkscape:zoom="1.2273711"
     inkscape:cx="164.5794"
     inkscape:cy="10.999118"
     inkscape:window-width="1968"
     inkscape:window-height="1124"
     inkscape:window-x="0"
     inkscape:window-y="48"
     inkscape:window-maximized="0"
     inkscape:current-layer="svg1" />
  <defs
     id="defs1">
    <filter
       inkscape:collect="always"
       style="color-interpolation-filters:sRGB"
       id="filter1"
       x="-0.011216919"
       y="-0.012900626"
       width="1.0224338"
       height="1.0258013">
      <feGaussianBlur
         inkscape:collect="always"
         stdDeviation="0.2263004"
         id="feGaussianBlur1" />
    </filter>
  </defs>
  <path
     id="path1"
     style="font-size:5.64444px;font-family:Rahovets;-inkscape-font-specification:Rahovets;fill:#4d4d4d;fill-opacity:0.8;stroke-width:0.616747;stroke-linecap:round;stroke-linejoin:round;filter:url(#filter1)"
     d="M 35.278856,4.8570237 H 46.85793 c 1.184122,0 2.104991,-0.9207726 2.104991,-2.1051682 0,-1.1841365 -0.920677,-2.10514808 -2.104991,-2.10514808 H 35.278856 6.8552171 c -3.4864356,0 -6.31209612,2.82522378 -6.31209612,6.31193108 v 6.3198755 c 0,3.486637 2.82566052,6.311966 6.31209612,6.311966 H 24.756925 c 1.18398,0 2.101925,0.923067 2.101925,2.108048 0,1.184156 -0.91852,2.101995 -2.101925,2.101995 H 4.7532926 c -2.3024548,0 -4.21017162,1.907601 -4.21017162,4.210047 v 10.526414 c 0,2.3025 1.90771682,4.210081 4.21017162,4.210081 H 42.651017 c 3.486626,0 6.311904,-2.825419 6.311904,-6.312074 V 15.384699 c 0,-3.486597 -2.825278,-6.3179784 -6.311904,-6.3179784 H 24.749498 c -1.184122,0 -2.101922,-0.9230671 -2.101922,-2.1080821 0,-1.1841547 0.918519,-2.1019988 2.101922,-2.1019988"
     sodipodi:nodetypes="scssssssssssssssssscssc"
     inkscape:export-filename="./signum-dark-large.png"
     inkscape:export-xdpi="789.47998"
     inkscape:export-ydpi="789.47998"
     inkscape:label="signum" />
  <path
     id="path1-2"
     style="font-size:5.64444px;font-family:Rahovets;-inkscape-font-specification:Rahovets;fill:#1f2328;fill-opacity:1;stroke-width:0.616747;stroke-linecap:round;stroke-linejoin:round"
     d="m 35.925563,4.2103164 h 11.579074 c 1.184122,0 2.104991,-0.9207726 2.104991,-2.1051682 C 49.609628,0.92101163 48.688951,0 47.504637,0 H 35.925563 7.5019244 C 4.0154888,0 1.1898284,2.8252239 1.1898284,6.3119312 v 6.3198758 c 0,3.486637 2.8256604,6.311966 6.312096,6.311966 H 25.403632 c 1.18398,0 2.101925,0.923067 2.101925,2.108048 0,1.184156 -0.91852,2.101995 -2.101925,2.101995 H 5.3999999 c -2.3024548,0 -4.2101715,1.907601 -4.2101715,4.210047 v 10.526414 c 0,2.3025 1.9077167,4.210081 4.2101715,4.210081 H 43.297724 c 3.486626,0 6.311904,-2.825419 6.311904,-6.312074 V 14.737992 c 0,-3.486597 -2.825278,-6.3179787 -6.311904,-6.3179787 H 25.396205 c -1.184122,0 -2.101922,-0.9230671 -2.101922,-2.1080821 0,-1.1841547 0.918519,-2.1019988 2.101922,-2.1019988"
     sodipodi:nodetypes="scssssssssssssssssscssc"
     inkscape:export-filename="./signum-dark-large.png"
     inkscape:export-xdpi="789.47998"
     inkscape:export-ydpi="789.47998"
     inkscape:label="signum" />
</svg>
