<?xml version="1.0" encoding="UTF-8" standalone="no"?>
<svg
   xml:space="preserve"
   viewBox="0 0 5.3156128 4.5331364"
   version="1.1"
   id="svg2"
   sodipodi:docname="w-opt.svg"
   width="5.3156128"
   height="4.5331364"
   inkscape:version="1.4 (e7c3feb1, 2024-10-09)"
   xmlns:inkscape="http://www.inkscape.org/namespaces/inkscape"
   xmlns:sodipodi="http://sodipodi.sourceforge.net/DTD/sodipodi-0.dtd"
   xmlns="http://www.w3.org/2000/svg"
   xmlns:svg="http://www.w3.org/2000/svg"><sodipodi:namedview
     id="namedview2"
     pagecolor="#ffffff"
     bordercolor="#000000"
     borderopacity="0.25"
     inkscape:showpageshadow="2"
     inkscape:pageopacity="0.0"
     inkscape:pagecheckerboard="0"
     inkscape:deskcolor="#d1d1d1"
     inkscape:zoom="5.9862845"
     inkscape:cx="15.034367"
     inkscape:cy="-21.54926"
     inkscape:window-width="1968"
     inkscape:window-height="1125"
     inkscape:window-x="0"
     inkscape:window-y="48"
     inkscape:window-maximized="1"
     inkscape:current-layer="svg2" /><defs
     id="defs1"><filter
       id="a"
       width="1.415"
       height="1.52"
       x="-0.207"
       y="-0.25999999"
       color-interpolation-filters="sRGB"><feGaussianBlur
         stdDeviation=".218"
         id="feGaussianBlur1" /></filter><filter
       inkscape:collect="always"
       style="color-interpolation-filters:sRGB"
       id="filter3"
       x="-0.059658175"
       y="-0.076881645"
       width="1.119312"
       height="1.1537633"><feGaussianBlur
         inkscape:collect="always"
         stdDeviation="0.021695"
         id="feGaussianBlur3" /></filter></defs><path
     fill="#01f9fe"
     stroke="#333"
     stroke-linejoin="bevel"
     stroke-width="0.5"
     d="m 2.5503167,1.6460679 -0.361,-1.34399989 h 2.843 l -1.615,3.92900019 h -0.173 l -0.587,-2.1850003 -0.587,2.1850003 h -0.173 L 0.28331667,0.30206801 h 0.214 L 1.9593167,3.8460682 Z m 2.175,-1.13499989 h -2.265 l 0.304,1.13499989 0.591,2.2000003 z"
     aria-label="WARden"
     font-family="'Major Mono Display'"
     font-size="5.644px"
     letter-spacing="0"
     style="-inkscape-font-specification:'Major Mono Display';fill:#dddddd;fill-opacity:0.8;stroke:#9c9c9c;stroke-opacity:1;filter:url(#filter3)"
     id="path3" /><path
     fill="#01f9fe"
     stroke="#333333"
     stroke-linejoin="bevel"
     stroke-width="0.5"
     d="m 2.5823067,1.6140792 -0.361,-1.34399999 h 2.843 l -1.615,3.92899999 h -0.173 l -0.587,-2.185 -0.587,2.185 h -0.173 L 0.31530667,0.27007921 h 0.214 L 1.9913067,3.8140792 Z m 2.175,-1.13499999 h -2.265 l 0.304,1.13499999 0.591,2.2 z"
     aria-label="WARden"
     font-family="'Major Mono Display'"
     font-size="5.644px"
     letter-spacing="0"
     style="-inkscape-font-specification:'Major Mono Display'"
     id="path1" /><path
     fill="#01f9fe"
     d="m 2.5823067,1.6140792 -0.361,-1.34399999 h 2.843 l -1.615,3.92899999 h -0.173 l -0.587,-2.185 -0.587,2.185 h -0.173 L 0.31530667,0.27007921 h 0.214 L 1.9913067,3.8140792 Z m 2.175,-1.13499999 h -2.265 l 0.304,1.13499999 0.591,2.2 z"
     aria-label="WARden"
     font-family="'Major Mono Display'"
     font-size="5.644px"
     letter-spacing="0"
     style="-inkscape-font-specification:'Major Mono Display'"
     id="path2" /></svg>
